<svg xmlns="http://www.w3.org/2000/svg" viewBox="0 -1000 1000 1000">
	<path fill="#000000" d="M344 -98C344 -141 387 -174 440 -174C535 -174 593 -108 605 -18C574 -11 541 -8 505 -8C410 -8 344 -39 344 -98ZM258 -706L259 -669C279 -671 293 -672 310 -673C360 -674 612 -686 666 -689C615 -644 473 -523 418 -477C362 -429 230 -320 138 -241L163 -218C307 -352 385 -409 560 -409C702 -409 796 -326 796 -222C796 -121 733 -55 636 -26C623 -114 563 -201 441 -201C363 -201 315 -152 315 -97C315 -32 375 23 506 23C685 23 827 -61 827 -222C827 -344 719 -437 560 -437C503 -437 439 -427 382 -407C472 -483 635 -625 679 -662C694 -675 709 -686 722 -696L695 -725C686 -722 681 -721 663 -719C615 -714 358 -704 308 -704C297 -704 275 -704 258 -706Z"/>
</svg>