<svg xmlns="http://www.w3.org/2000/svg" viewBox="0 -1000 1000 1000">
	<path fill="#000000" d="M351 -335C351 -410 408 -462 473 -462C528 -462 574 -431 585 -348C580 -267 543 -214 474 -214C405 -214 351 -256 351 -335ZM554 -770C555 -766 558 -744 558 -731C559 -711 560 -674 560 -633C396 -631 209 -623 105 -620L106 -585C231 -596 412 -602 561 -604C561 -548 562 -492 562 -463C539 -482 508 -493 471 -493C390 -493 320 -418 320 -335C320 -241 386 -184 474 -184C517 -184 559 -206 583 -249C564 -128 484 -42 318 0L347 26C564 -43 619 -176 619 -313C619 -359 610 -399 591 -430C590 -475 589 -542 589 -604H637C781 -604 858 -603 907 -600V-632C869 -632 775 -634 636 -634H589C589 -674 589 -709 590 -731C590 -740 592 -764 593 -770Z"/>
</svg>