<svg xmlns="http://www.w3.org/2000/svg" viewBox="0 -1000 1000 1000">
	<path fill="#000000" d="M785 -754L760 -744C781 -710 814 -649 833 -607L863 -621C842 -661 806 -722 785 -754ZM880 -794L855 -781C878 -749 909 -691 929 -648L959 -661C936 -703 901 -762 880 -794ZM703 -699L669 -689C677 -658 686 -629 694 -601C744 -232 650 7 415 7C308 7 201 -39 201 -201C201 -415 369 -606 426 -648C440 -653 468 -658 480 -661L471 -693C420 -672 253 -647 172 -644C154 -643 134 -643 122 -644L125 -605C142 -606 160 -609 177 -611C219 -617 316 -629 378 -642C296 -562 171 -402 171 -196C171 -48 262 39 414 39C683 39 757 -229 728 -505C766 -409 814 -330 884 -258L909 -284C769 -407 725 -584 703 -699Z"/>
</svg>