<svg xmlns="http://www.w3.org/2000/svg" viewBox="0 -1000 1000 1000">
	<path fill="#000000" d="M631 -682H594C597 -671 598 -649 598 -634V-541H370C344 -541 329 -543 308 -545V-507C328 -509 346 -511 371 -511H598V-134C598 -112 588 -102 565 -102C542 -102 510 -107 473 -113L475 -80C500 -77 546 -73 571 -73C611 -73 628 -91 628 -130V-511H854C870 -511 890 -511 908 -510V-545C889 -542 868 -541 853 -541H628V-634C628 -649 629 -671 631 -682ZM783 -399L757 -384C813 -318 867 -228 892 -176L922 -194C876 -271 833 -338 783 -399ZM477 -389L448 -403C419 -340 351 -243 295 -194L323 -174C372 -225 446 -326 477 -389Z"/>
</svg>