<svg xmlns="http://www.w3.org/2000/svg" viewBox="0 -1000 1000 1000">
	<path fill="#000000" d="M133 -360C201 -360 245 -426 245 -540C245 -656 201 -716 133 -716C67 -716 21 -656 21 -540C21 -426 67 -360 133 -360ZM133 -390C89 -390 55 -444 55 -540C55 -638 89 -686 133 -686C177 -686 211 -638 211 -540C211 -444 177 -390 133 -390ZM365 14C433 14 477 -52 477 -166C477 -282 433 -342 365 -342C299 -342 253 -282 253 -166C253 -52 299 14 365 14ZM365 -16C321 -16 287 -70 287 -166C287 -264 321 -312 365 -312C409 -312 443 -264 443 -166C443 -70 409 -16 365 -16ZM54 -44L472 -664L444 -682L28 -60Z"/>
</svg>