<svg xmlns="http://www.w3.org/2000/svg" viewBox="0 -1000 1000 1000">
	<path fill="#000000" d="M802 -750C802 -791 835 -825 876 -825C917 -825 951 -791 951 -750C951 -709 917 -676 876 -676C835 -676 802 -709 802 -750ZM772 -750C772 -692 818 -646 876 -646C934 -646 981 -692 981 -750C981 -808 934 -855 876 -855C818 -855 772 -808 772 -750ZM834 -607L798 -617C778 -491 725 -369 645 -266C549 -143 412 -45 268 -1L292 25C429 -19 574 -121 672 -250C752 -355 792 -458 824 -573C826 -582 831 -599 834 -607ZM423 -696L394 -686C414 -644 469 -486 483 -436L514 -447C500 -493 442 -653 423 -696ZM152 -640L121 -627C139 -594 209 -426 226 -368L258 -380C234 -442 173 -593 152 -640Z"/>
</svg>