<svg xmlns="http://www.w3.org/2000/svg" viewBox="0 -1000 1000 1000">
	<path fill="#000000" d="M465 -648V-614C557 -602 759 -602 849 -614V-648C759 -632 558 -629 465 -648ZM465 -267L433 -271C423 -226 418 -194 418 -168C418 -84 485 -34 644 -34C737 -34 822 -42 881 -55L880 -90C807 -73 728 -65 640 -65C473 -65 448 -124 448 -170C448 -197 454 -229 465 -267ZM243 -733L204 -736C204 -725 203 -712 200 -693C188 -607 152 -436 152 -296C152 -164 167 -58 187 14L216 12C215 5 213 -6 212 -16C211 -29 214 -44 217 -58C225 -99 264 -200 286 -257L263 -274C244 -227 214 -145 195 -90C187 -147 182 -222 182 -296C182 -419 208 -573 232 -689C236 -707 240 -720 243 -733Z"/>
</svg>