<svg xmlns="http://www.w3.org/2000/svg" viewBox="0 -1000 1000 1000">
	<path fill="#000000" d="M450 -772L410 -773C410 -766 410 -753 408 -738C405 -714 402 -680 397 -640C367 -639 336 -638 307 -638C282 -638 205 -643 164 -650L165 -616C199 -613 276 -610 308 -610C336 -610 365 -611 395 -612C390 -560 385 -501 382 -443C252 -385 136 -257 136 -131C136 -64 177 -28 234 -28C285 -28 351 -54 411 -99C417 -74 424 -50 431 -27L464 -37C454 -64 446 -92 439 -121C538 -204 611 -314 666 -458C783 -435 848 -353 848 -262C848 -106 707 -18 542 0L560 29C776 -6 879 -118 879 -260C879 -362 809 -455 675 -482C680 -496 684 -509 689 -523C693 -535 696 -543 700 -551L664 -562C663 -551 660 -542 658 -533C654 -517 649 -502 644 -487C628 -489 611 -490 593 -490C544 -490 474 -477 412 -455C415 -510 420 -565 425 -613C543 -619 671 -632 782 -650L781 -682C689 -662 556 -647 428 -641C433 -680 437 -713 441 -737C443 -748 446 -762 450 -772ZM409 -354C409 -377 410 -401 410 -425C461 -446 529 -464 598 -464C611 -464 624 -463 636 -462C587 -325 514 -225 431 -153C417 -219 409 -287 409 -354ZM167 -133C167 -242 265 -357 381 -412C380 -392 380 -372 380 -352C380 -278 389 -202 404 -130C341 -81 281 -59 233 -59C192 -59 167 -85 167 -133Z"/>
</svg>