<svg xmlns="http://www.w3.org/2000/svg" viewBox="0 -1000 1000 1000">
	<path fill="#000000" d="M170 -137C170 -192 250 -265 348 -307C349 -222 351 -130 351 -82C351 -52 339 -30 311 -30C263 -30 170 -82 170 -137ZM349 -778C352 -763 353 -745 353 -726C353 -709 352 -652 350 -586C316 -583 284 -581 257 -581C221 -581 193 -582 143 -589L144 -555C176 -552 211 -550 257 -550C283 -550 315 -552 349 -556C348 -495 347 -430 347 -381V-338C242 -293 136 -211 136 -136C136 -64 256 4 314 4C356 4 381 -22 381 -83C381 -135 378 -232 377 -319C462 -352 533 -369 619 -369C719 -369 810 -319 810 -220C810 -110 718 -59 626 -40C586 -31 546 -32 515 -33L526 1C555 1 598 0 640 -10C755 -35 843 -101 843 -221C843 -321 756 -398 619 -398C545 -398 459 -381 377 -350V-384C377 -433 378 -498 380 -559C458 -568 544 -584 603 -598L602 -632C542 -614 458 -598 381 -589C383 -654 385 -710 385 -728C386 -750 387 -762 389 -778ZM871 -805C900 -767 931 -716 951 -675L979 -688C954 -735 920 -788 896 -818ZM772 -771C800 -732 830 -681 850 -638L878 -653C854 -701 821 -753 798 -783ZM697 -613C761 -576 852 -514 902 -462L922 -489C880 -531 780 -600 715 -637Z"/>
</svg>