<svg xmlns="http://www.w3.org/2000/svg" viewBox="0 -1000 1000 1000">
	<path fill="#000000" d="M334 -77C334 -43 334 -7 331 18H369C366 -7 366 -43 366 -77C366 -92 366 -268 365 -440C473 -408 665 -335 774 -275L787 -307C672 -365 492 -435 365 -474V-648C365 -667 367 -708 370 -734H329C333 -708 334 -669 334 -648ZM614 -664C614 -603 664 -552 726 -552C787 -552 837 -603 837 -664C837 -725 787 -775 726 -775C664 -775 614 -725 614 -664ZM644 -664C644 -709 680 -745 726 -745C771 -745 807 -709 807 -664C807 -618 771 -582 726 -582C680 -582 644 -618 644 -664Z"/>
</svg>