<svg xmlns="http://www.w3.org/2000/svg" viewBox="0 -1000 1000 1000">
	<path fill="#000000" d="M534 -393C448 -393 385 -344 348 -316C405 -403 460 -511 506 -613C603 -597 726 -564 815 -529L831 -563C735 -598 646 -620 519 -641C537 -682 553 -721 567 -756C576 -778 588 -802 595 -817L550 -831C547 -815 543 -794 536 -772C483 -626 416 -483 322 -326C263 -228 155 -71 94 -7L130 13C186 -56 258 -165 301 -227C348 -288 427 -364 533 -364C640 -364 687 -273 667 -182C643 -72 551 18 436 18C372 18 334 -12 297 -49L286 -14C334 32 383 48 439 48C565 48 666 -51 695 -167C722 -271 671 -393 534 -393Z"/>
</svg>