<svg xmlns="http://www.w3.org/2000/svg" viewBox="0 -1000 1000 1000">
	<path fill="#000000" d="M534 -756H496C499 -744 501 -719 501 -702V-580H208C177 -580 162 -581 137 -584V-548C161 -549 179 -550 209 -550H501V-66C501 -40 490 -29 462 -29C435 -29 390 -32 346 -40L348 -5C378 -2 436 3 466 3C515 3 531 -16 531 -61V-550H820C840 -550 861 -550 882 -549V-584C860 -581 837 -580 819 -580H531V-702C531 -720 532 -742 534 -756ZM730 -399L704 -386C760 -324 835 -198 870 -129L900 -147C861 -217 785 -337 730 -399ZM339 -389L309 -403C273 -328 186 -204 121 -147L151 -127C208 -189 298 -310 339 -389Z"/>
</svg>