<svg xmlns="http://www.w3.org/2000/svg" viewBox="0 -1000 1000 1000">
	<path fill="#000000" d="M359 -775C360 -754 358 -733 355 -711C352 -690 348 -660 341 -625C326 -624 312 -624 299 -624C242 -624 170 -631 130 -638L131 -604C186 -599 241 -594 300 -594H335C312 -482 272 -329 218 -225L252 -213C261 -231 271 -246 285 -261C356 -343 472 -383 593 -383C726 -383 794 -320 794 -232C794 -55 572 -5 334 -34L340 0C618 30 825 -44 825 -233C825 -336 745 -412 594 -412C483 -412 379 -382 288 -307C314 -368 345 -495 366 -595C487 -599 643 -614 771 -637V-673C650 -645 493 -630 372 -625C379 -659 384 -688 387 -708C391 -727 396 -755 401 -772Z"/>
</svg>