<svg xmlns="http://www.w3.org/2000/svg" viewBox="0 -1000 1000 1000">
	<path fill="#000000" d="M535 -202H564L568 -679V-748H531V-679ZM550 2C569 2 590 -13 590 -41C590 -70 569 -86 550 -86C529 -86 509 -70 509 -41C509 -13 529 2 550 2ZM180 -202H213C191 -373 377 -445 377 -596C377 -687 318 -761 212 -761C138 -761 81 -724 40 -678L63 -657C100 -702 155 -728 209 -728C301 -728 340 -664 340 -593C340 -451 156 -387 180 -202ZM201 2C221 2 242 -13 242 -41C242 -70 221 -86 201 -86C180 -86 161 -70 161 -41C161 -13 180 2 201 2Z"/>
</svg>