<svg xmlns="http://www.w3.org/2000/svg" viewBox="0 -1000 1000 1000">
	<path fill="#000000" d="M352 -755C353 -734 351 -713 348 -691C345 -670 341 -640 334 -605C319 -604 305 -604 292 -604C235 -604 163 -611 123 -618L124 -584C179 -579 234 -574 293 -574H328C305 -462 265 -309 211 -205L245 -193C254 -211 264 -226 278 -241C349 -323 465 -363 586 -363C719 -363 786 -300 786 -212C786 -35 564 14 327 -14L333 20C611 50 818 -24 818 -213C818 -316 738 -392 587 -392C476 -392 372 -362 281 -287C307 -348 338 -475 359 -575C480 -579 636 -594 764 -617V-653C643 -625 486 -610 365 -605C372 -639 377 -668 380 -688C383 -707 388 -735 393 -752ZM842 -808C871 -772 904 -717 926 -673L954 -686C934 -724 895 -785 868 -821ZM741 -773C768 -737 805 -676 823 -637L851 -651C829 -694 793 -752 768 -786Z"/>
</svg>