<svg xmlns="http://www.w3.org/2000/svg" viewBox="0 -1000 1000 1000">
	<path fill="#000000" d="M316 -763L310 -731C432 -706 592 -684 686 -675L691 -707C605 -712 419 -737 316 -763ZM695 -509L674 -539C665 -535 650 -531 635 -529C569 -520 335 -499 269 -498C241 -497 219 -497 196 -499L199 -458C221 -461 241 -463 272 -465C336 -470 543 -489 630 -494C526 -396 194 -66 166 -38C154 -25 142 -15 136 -10L172 15C216 -41 355 -185 394 -220C416 -240 441 -251 476 -251C509 -251 531 -229 542 -196C553 -164 571 -94 580 -64C598 3 645 19 711 19C765 19 844 11 887 4L889 -36C845 -22 764 -12 710 -12C647 -12 624 -28 610 -72C598 -108 582 -171 572 -202C558 -246 531 -276 483 -276C473 -276 455 -274 443 -272C493 -323 621 -442 651 -472C657 -478 685 -501 695 -509Z"/>
</svg>