<svg xmlns="http://www.w3.org/2000/svg" viewBox="0 -1000 1000 1000">
	<path fill="#000000" d="M627 -532C627 -578 665 -615 711 -615C758 -615 795 -578 795 -532C795 -485 758 -448 711 -448C665 -448 627 -485 627 -532ZM597 -532C597 -469 648 -417 711 -417C774 -417 825 -469 825 -532C825 -594 774 -646 711 -646C648 -646 597 -594 597 -532ZM635 -755L603 -783C596 -770 577 -746 566 -734C498 -663 332 -534 259 -472C179 -403 164 -371 254 -298C349 -221 505 -87 586 -6C605 13 622 31 636 47L662 24C552 -90 388 -226 281 -312C206 -373 209 -392 276 -450C357 -516 513 -641 585 -709C595 -718 624 -745 635 -755Z"/>
</svg>