<svg xmlns="http://www.w3.org/2000/svg" viewBox="0 -1000 1000 1000">
	<path fill="#000000" d="M621 -555L596 -543C620 -505 660 -440 681 -401L708 -414C687 -451 645 -520 621 -555ZM732 -597L706 -584C733 -547 771 -489 795 -447L822 -460C799 -502 757 -566 732 -597ZM662 -746L629 -776C622 -763 603 -739 591 -727C525 -657 362 -531 290 -470C211 -402 196 -371 285 -299C379 -224 530 -93 610 -13C629 6 646 24 661 40L689 15C582 -96 420 -229 316 -313C242 -373 245 -392 311 -448C389 -513 543 -636 614 -702C624 -711 651 -737 662 -746Z"/>
</svg>