<svg xmlns="http://www.w3.org/2000/svg" viewBox="0 -1000 1000 1000">
	<path fill="#000000" d="M417 -764L378 -767C377 -697 365 -614 349 -549C281 -543 212 -537 178 -536C151 -535 134 -535 107 -536L112 -497C133 -500 163 -503 180 -504C212 -506 276 -513 342 -519C313 -398 233 -144 128 -5L162 8C279 -180 340 -385 375 -522C432 -527 486 -531 517 -531C581 -531 628 -511 628 -410C628 -295 610 -158 576 -81C551 -29 518 -24 479 -24C449 -24 402 -29 358 -44L363 -7C392 -1 439 7 476 7C529 7 572 -4 601 -66C642 -145 659 -298 659 -415C659 -539 590 -560 518 -560C492 -560 439 -556 382 -551C396 -621 407 -705 411 -729C413 -743 415 -754 417 -764ZM754 -648L726 -632C794 -557 882 -371 912 -268L944 -283C909 -383 816 -574 754 -648Z"/>
</svg>