<svg xmlns="http://www.w3.org/2000/svg" viewBox="0 -1000 1000 1000">
	<path fill="#000000" d="M312 -767L306 -737C430 -712 594 -689 689 -680L695 -710C607 -715 417 -740 312 -767ZM699 -512L677 -538C668 -534 653 -530 637 -528C570 -519 331 -498 264 -496C236 -495 213 -495 190 -497L193 -460C215 -463 236 -465 267 -467C332 -472 549 -491 637 -498C531 -397 191 -55 162 -26C150 -14 138 -4 131 1L165 25C209 -32 352 -180 392 -216C414 -236 440 -248 475 -248C509 -248 532 -224 544 -190C555 -158 573 -87 582 -57C601 11 648 28 715 28C770 28 851 20 894 12L896 -25C852 -11 769 -1 714 -1C650 -1 625 -19 611 -64C599 -102 582 -165 572 -197C558 -241 530 -272 481 -272C471 -272 453 -270 441 -268C492 -320 623 -443 654 -474C660 -480 688 -504 699 -512ZM774 -787L747 -774C776 -735 811 -673 831 -630L859 -645C835 -694 797 -756 774 -787ZM874 -822L848 -809C878 -770 913 -709 934 -667L962 -681C937 -729 898 -792 874 -822Z"/>
</svg>