<svg xmlns="http://www.w3.org/2000/svg" viewBox="0 -1000 1000 1000">
	<path fill="#000000" d="M789 -693C789 -734 821 -766 862 -766C902 -766 934 -734 934 -693C934 -653 902 -620 862 -620C820 -620 789 -653 789 -693ZM760 -693C760 -637 805 -591 862 -591C918 -591 965 -637 965 -693C965 -750 918 -796 862 -796C805 -796 760 -750 760 -693ZM703 -699L669 -689C677 -658 686 -629 694 -601C744 -232 650 7 415 7C308 7 201 -39 201 -201C201 -415 369 -606 426 -648C440 -653 468 -658 480 -661L471 -693C420 -672 253 -647 172 -644C154 -643 134 -643 122 -644L125 -605C142 -606 160 -609 177 -611C219 -617 316 -629 378 -642C296 -562 171 -402 171 -196C171 -48 262 39 414 39C683 39 757 -229 728 -505C766 -409 814 -330 884 -258L909 -284C769 -407 725 -584 703 -699Z"/>
</svg>