<svg xmlns="http://www.w3.org/2000/svg" viewBox="0 -1000 1000 1000">
	<path fill="#000000" d="M470 -621C469 -604 467 -572 465 -535C419 -527 357 -521 334 -520C324 -519 311 -519 302 -519L307 -482C358 -490 430 -501 463 -506C461 -473 459 -439 457 -410C421 -352 325 -221 282 -166L306 -138C354 -206 413 -293 454 -353C449 -258 450 -143 450 -78C450 -66 449 -49 448 -43H484C483 -55 482 -66 482 -79C480 -152 480 -221 481 -299C481 -321 482 -344 483 -368C555 -435 648 -487 738 -487C868 -487 911 -393 911 -330C911 -203 799 -126 653 -108L665 -78C835 -106 942 -190 942 -329C942 -448 848 -516 740 -516C666 -516 572 -481 485 -403C486 -422 488 -441 489 -460C501 -484 514 -511 523 -526L504 -545C502 -544 499 -543 497 -543C503 -603 510 -651 514 -667L470 -668C471 -654 471 -634 470 -621Z"/>
</svg>