<svg xmlns="http://www.w3.org/2000/svg" viewBox="0 -1000 1000 1000">
	<path fill="#000000" d="M736 -802L710 -790C734 -759 770 -699 790 -660L817 -674C796 -712 758 -772 736 -802ZM851 -826L825 -815C850 -784 883 -726 905 -687L933 -699C910 -739 873 -796 851 -826ZM297 -5L325 19C489 -53 601 -164 677 -282C745 -388 781 -506 799 -589C801 -596 805 -614 810 -629L771 -636C771 -624 767 -601 766 -594C752 -519 720 -403 650 -298C574 -184 462 -71 297 -5ZM198 -661L169 -647C205 -598 293 -448 329 -379L357 -396C324 -454 237 -604 198 -661Z"/>
</svg>