<svg xmlns="http://www.w3.org/2000/svg" viewBox="0 -1000 1000 1000">
	<path fill="#000000" d="M187 -681L147 -683C152 -667 152 -625 152 -606C152 -551 154 -425 163 -344C190 -94 276 -4 355 -4C410 -4 469 -60 523 -224L498 -245C465 -124 410 -35 356 -35C276 -35 209 -158 190 -348C182 -440 180 -549 182 -609C183 -633 185 -669 187 -681ZM728 -648L700 -636C781 -526 849 -357 869 -158L898 -171C879 -356 812 -531 728 -648ZM794 -787L767 -774C796 -735 831 -673 851 -630L879 -645C855 -694 817 -756 794 -787ZM894 -822L868 -809C898 -770 933 -709 954 -667L982 -681C957 -729 918 -792 894 -822Z"/>
</svg>