<svg xmlns="http://www.w3.org/2000/svg" viewBox="0 -1000 1000 1000">
	<path fill="#000000" d="M730 -802L704 -790C727 -759 764 -699 783 -660L810 -674C789 -712 751 -772 730 -802ZM844 -826L818 -815C843 -784 876 -726 899 -686L926 -699C904 -739 867 -796 844 -826ZM834 -607L798 -617C778 -491 725 -369 645 -266C549 -143 412 -45 268 -1L292 25C429 -19 574 -121 672 -250C752 -355 792 -458 824 -573C826 -582 831 -599 834 -607ZM423 -696L393 -686C414 -644 469 -486 483 -436L514 -447C500 -493 442 -653 423 -696ZM152 -640L120 -627C139 -594 209 -426 226 -368L258 -380C234 -442 173 -593 152 -640Z"/>
</svg>