<svg xmlns="http://www.w3.org/2000/svg" viewBox="0 -1000 1000 1000">
	<path fill="#000000" d="M387 -194C387 -246 446 -278 540 -278C567 -278 595 -275 622 -269C623 -239 624 -213 624 -195C624 -151 593 -115 529 -115C432 -115 387 -148 387 -194ZM650 -715H609C613 -706 615 -671 615 -652V-484C615 -434 618 -362 621 -300C595 -304 568 -307 541 -307C414 -307 356 -258 356 -194C356 -125 418 -86 531 -86C613 -86 655 -135 655 -187C655 -207 654 -233 653 -262C742 -237 826 -186 882 -129L900 -162C841 -213 754 -268 652 -293C649 -359 645 -432 645 -484V-523C712 -524 817 -529 888 -537V-567C815 -557 710 -553 645 -552V-652C645 -670 647 -705 650 -715Z"/>
</svg>