<svg xmlns="http://www.w3.org/2000/svg" viewBox="0 -1000 1000 1000">
	<path fill="#000000" d="M394 -771L357 -774C356 -702 343 -617 327 -550C257 -544 185 -538 151 -537C124 -536 106 -536 79 -537L84 -499C105 -502 136 -505 153 -507C186 -509 253 -516 320 -523C292 -400 209 -139 102 3L134 16C254 -177 316 -386 351 -526C409 -531 465 -535 497 -535C562 -535 612 -513 612 -410C612 -292 594 -153 558 -74C533 -20 498 -14 458 -14C428 -14 380 -19 335 -34L340 1C369 8 417 16 455 16C509 16 553 5 583 -59C624 -139 642 -295 642 -415C642 -541 571 -562 498 -562C472 -562 417 -558 357 -553C372 -623 384 -710 388 -735C390 -749 392 -760 394 -771ZM737 -640L711 -625C780 -549 866 -377 899 -283L927 -298C891 -388 800 -565 737 -640ZM798 -698C798 -740 831 -774 873 -774C914 -774 948 -740 948 -698C948 -657 914 -623 873 -623C831 -623 798 -657 798 -698ZM768 -698C768 -640 814 -593 873 -593C931 -593 979 -640 979 -698C979 -757 931 -804 873 -804C814 -804 768 -757 768 -698Z"/>
</svg>