<svg xmlns="http://www.w3.org/2000/svg" viewBox="0 -1000 1000 1000">
	<path fill="#000000" d="M785 -718C785 -760 817 -793 858 -793C900 -793 933 -760 933 -718C933 -677 900 -645 858 -645C817 -645 785 -677 785 -718ZM754 -718C754 -661 801 -614 858 -614C916 -614 963 -661 963 -718C963 -776 916 -823 858 -823C801 -823 754 -776 754 -718ZM729 -755H688C691 -740 694 -726 696 -705C698 -685 701 -594 703 -528C660 -526 617 -525 574 -525C519 -525 441 -530 403 -537V-504C440 -500 520 -497 573 -497C616 -497 660 -498 704 -501V-476C704 -260 710 -123 572 -16C551 2 519 20 495 29L525 52C750 -71 732 -252 732 -476V-502C798 -507 862 -515 917 -527V-560C860 -544 797 -535 731 -530C730 -596 727 -684 727 -706C727 -728 728 -744 729 -755ZM225 -742L187 -747C187 -736 186 -717 183 -699C172 -614 140 -461 140 -300C140 -173 170 -52 188 10L213 5C212 -2 210 -12 209 -21C208 -33 209 -49 212 -62C222 -104 256 -208 274 -261L251 -273C230 -210 206 -137 192 -83C142 -287 175 -515 214 -694C218 -711 222 -730 225 -742Z"/>
</svg>