<svg xmlns="http://www.w3.org/2000/svg" viewBox="0 -1000 1000 1000">
	<path fill="#000000" d="M804 -735C804 -776 837 -810 878 -810C919 -810 953 -776 953 -735C953 -694 919 -661 878 -661C837 -661 804 -694 804 -735ZM774 -735C774 -677 820 -631 878 -631C936 -631 983 -677 983 -735C983 -793 936 -840 878 -840C820 -840 774 -793 774 -735ZM448 -747L410 -760C407 -743 398 -717 393 -706C355 -613 246 -451 76 -352L103 -332C223 -410 303 -501 358 -583H752C727 -475 662 -336 575 -231C480 -117 342 -23 179 23L206 49C393 -16 512 -107 599 -213C686 -319 752 -456 779 -568C781 -575 787 -594 792 -603L762 -620C752 -615 741 -613 718 -613H377C395 -641 409 -668 421 -692C429 -708 439 -730 448 -747Z"/>
</svg>