<svg xmlns="http://www.w3.org/2000/svg" viewBox="0 -1000 1000 1000">
	<path fill="#000000" d="M191 -740C191 -729 190 -711 187 -693C176 -610 145 -460 145 -302C145 -178 175 -59 193 2L221 -3C220 -10 218 -20 217 -28C216 -40 217 -56 220 -69C230 -110 262 -211 281 -263L254 -278C236 -216 212 -149 199 -96C153 -296 184 -513 222 -688C226 -705 230 -724 233 -735ZM686 -748C689 -733 690 -720 692 -699C694 -679 697 -592 699 -527C657 -525 615 -524 573 -524C519 -524 443 -529 405 -535V-501C442 -497 520 -494 572 -494C614 -494 657 -495 700 -498V-474C700 -263 706 -129 572 -26C551 -7 519 11 495 20L527 44C747 -76 731 -254 731 -474V-500C795 -504 856 -512 909 -523V-558C854 -543 793 -534 730 -529C729 -593 726 -679 726 -700C726 -722 727 -737 728 -748ZM872 -784C892 -750 915 -694 931 -650L962 -661C944 -702 919 -760 900 -794ZM777 -755C795 -720 821 -661 835 -619L866 -631C850 -672 823 -732 805 -765Z"/>
</svg>