<svg xmlns="http://www.w3.org/2000/svg" viewBox="0 -1000 1000 1000">
	<path fill="#000000" d="M256 256C387 256 468 169 468 80C468 -1 415 -38 298 -38H232C151 -38 130 -72 130 -112C130 -148 146 -170 170 -190C192 -176 220 -168 244 -168C326 -168 394 -242 394 -354C394 -422 374 -462 348 -494H469V-526H304C288 -534 265 -538 244 -538C162 -538 92 -468 92 -354C92 -284 116 -242 144 -212V-208C120 -192 92 -156 92 -108C92 -68 112 -40 138 -24V-20C94 16 68 64 68 110C68 198 140 256 256 256ZM244 -200C186 -200 130 -256 130 -354C130 -456 184 -507 244 -507C308 -507 358 -454 358 -354C358 -256 304 -200 244 -200ZM258 224C161 224 106 177 106 107C106 68 124 26 170 -9C202 -2 218 -2 234 -2H304C387 -2 430 22 430 84C430 153 365 224 258 224Z"/>
</svg>