<svg xmlns="http://www.w3.org/2000/svg" viewBox="0 -1000 1000 1000">
	<path fill="#000000" d="M160 -126C160 -237 260 -357 379 -413C378 -392 378 -370 378 -350C378 -281 389 -199 404 -127C339 -75 278 -53 228 -53C186 -53 160 -77 160 -126ZM868 -809C898 -770 933 -709 954 -667L982 -681C957 -729 918 -792 894 -822ZM767 -774C796 -735 831 -673 851 -630L879 -645C855 -694 817 -756 794 -787ZM406 -346C406 -372 407 -399 408 -425C459 -446 529 -466 600 -466C614 -466 628 -465 641 -464C591 -325 514 -224 430 -148C416 -214 406 -285 406 -346ZM410 -780C410 -773 409 -760 408 -744C406 -720 402 -685 397 -644C366 -643 334 -642 303 -642C278 -642 191 -647 157 -654L158 -619C193 -616 271 -613 304 -613C333 -613 364 -614 394 -615C389 -563 384 -503 381 -445C248 -385 127 -255 127 -126C127 -58 170 -21 229 -21C281 -21 350 -48 411 -95C418 -67 425 -42 432 -19L462 -29C453 -55 445 -84 437 -116C531 -196 612 -312 670 -459C789 -436 855 -351 855 -259C855 -99 710 -10 542 8L561 36C780 0 886 -112 886 -257C886 -360 815 -456 679 -484L694 -526C698 -537 701 -545 705 -554L669 -564C668 -553 665 -543 663 -534C659 -519 654 -503 649 -489C632 -491 614 -492 595 -492C544 -492 472 -479 409 -456C411 -512 416 -567 421 -616C535 -621 655 -632 767 -651L766 -684C672 -664 549 -650 424 -645C429 -685 433 -719 438 -743C440 -755 444 -773 447 -779Z"/>
</svg>