<svg xmlns="http://www.w3.org/2000/svg" viewBox="0 -1000 1000 1000">
	<path fill="#000000" d="M652 -529C652 -574 689 -610 734 -610C780 -610 816 -574 816 -529C816 -483 780 -446 734 -446C689 -446 652 -483 652 -529ZM622 -529C622 -467 672 -416 734 -416C796 -416 846 -467 846 -529C846 -590 796 -641 734 -641C672 -641 622 -590 622 -529ZM662 -746L629 -776C622 -763 603 -739 591 -727C525 -657 362 -531 290 -470C211 -402 196 -371 285 -299C379 -224 530 -93 610 -13C629 6 646 24 661 40L689 15C582 -96 420 -229 316 -313C242 -373 245 -392 311 -448C389 -513 543 -636 614 -702C624 -711 651 -737 662 -746Z"/>
</svg>