<svg xmlns="http://www.w3.org/2000/svg" viewBox="0 -1000 1000 1000">
	<path fill="#000000" d="M804 -757L776 -749C785 -733 795 -711 805 -687C696 -674 538 -666 407 -677V-645C480 -641 563 -642 641 -645V-448C560 -445 474 -445 391 -451V-419C472 -414 559 -414 641 -418C642 -355 647 -275 651 -212C618 -220 582 -224 544 -224C417 -224 370 -160 370 -108C370 -29 439 13 542 13C626 13 683 -24 683 -96C683 -115 682 -141 681 -172C752 -147 818 -103 875 -44L894 -77C835 -130 765 -179 679 -204C676 -272 672 -353 671 -419C745 -422 814 -428 869 -433V-466C812 -459 744 -453 671 -449V-647C726 -650 777 -654 818 -658C826 -639 833 -621 838 -606L868 -618C853 -659 821 -724 804 -757ZM900 -788L871 -777C892 -743 917 -681 934 -637L965 -649C948 -690 918 -755 900 -788ZM399 -108C399 -160 459 -195 544 -195C581 -195 617 -190 653 -180C654 -156 655 -136 655 -123C655 -65 639 -17 544 -17C455 -17 399 -46 399 -108ZM205 -726L167 -729C167 -719 166 -705 163 -686C150 -600 114 -421 114 -280C114 -148 129 -45 149 27L179 24C178 18 176 6 175 -3C174 -16 177 -31 180 -45C188 -87 227 -190 248 -244L226 -263C206 -216 176 -130 158 -76C148 -152 144 -206 144 -281C144 -403 170 -566 194 -682C197 -700 201 -713 205 -726Z"/>
</svg>