<svg xmlns="http://www.w3.org/2000/svg" viewBox="0 -1000 1000 1000">
	<path fill="#000000" d="M452 -95C452 -138 493 -168 545 -168C626 -168 673 -110 697 -34C662 -19 621 -11 575 -11C507 -11 452 -39 452 -95ZM224 -719L226 -680C312 -689 456 -696 514 -700C504 -657 487 -596 466 -528C269 -479 117 -301 117 -140C117 -66 160 -32 206 -32C242 -32 269 -41 297 -72C335 -112 384 -196 423 -306C447 -373 469 -441 488 -503C513 -508 540 -511 567 -511C741 -511 830 -390 830 -252C830 -161 793 -90 727 -50C704 -118 651 -197 543 -197C478 -197 421 -157 421 -94C421 -28 478 19 576 19C782 19 863 -119 863 -254C863 -410 758 -541 571 -541C546 -541 521 -539 497 -535C517 -598 532 -653 543 -690C546 -701 554 -711 559 -718L527 -737C515 -732 503 -729 482 -727C425 -723 317 -718 281 -717C263 -716 237 -718 224 -719ZM147 -141C147 -275 275 -444 456 -495C437 -437 415 -375 394 -318C361 -229 321 -140 275 -92C250 -69 227 -64 206 -64C176 -64 147 -88 147 -141Z"/>
</svg>