<svg xmlns="http://www.w3.org/2000/svg" viewBox="0 -1000 1000 1000">
	<path fill="#000000" d="M742 -760L716 -747C742 -711 778 -652 796 -613L823 -627C802 -669 766 -726 742 -760ZM840 -794L815 -781C843 -745 875 -692 897 -648L924 -662C905 -700 866 -759 840 -794ZM362 -736L323 -742C321 -722 319 -705 314 -687C304 -649 288 -601 261 -548C230 -491 154 -379 84 -331L115 -312C170 -355 242 -450 281 -524H572C561 -233 432 -100 345 -35C325 -19 299 -5 279 2L314 27C471 -73 590 -224 603 -524H795C817 -524 851 -523 875 -522V-558C851 -554 818 -554 795 -554H296C319 -603 332 -643 344 -678C350 -698 356 -716 362 -736Z"/>
</svg>