<svg xmlns="http://www.w3.org/2000/svg" viewBox="0 -1000 1000 1000">
	<path fill="#000000" d="M635 -764H593C598 -742 599 -718 600 -699C601 -683 601 -638 602 -577H206C179 -577 162 -578 132 -581V-544C160 -546 175 -547 206 -547H594C516 -422 324 -229 113 -123L136 -97C338 -204 526 -391 603 -509C605 -353 607 -147 607 -54C607 -28 599 -15 567 -15C526 -15 468 -19 418 -28L420 7C462 10 525 13 567 13C611 13 637 -6 637 -47C637 -163 634 -392 632 -547H821C843 -547 873 -545 889 -544V-581C873 -579 842 -577 822 -577H631C631 -638 630 -683 630 -699C630 -722 632 -741 635 -764ZM794 -787L767 -774C796 -735 828 -678 848 -635L876 -650C852 -699 817 -756 794 -787ZM894 -822L868 -809C898 -770 930 -714 951 -672L979 -686C954 -734 918 -792 894 -822Z"/>
</svg>