<svg xmlns="http://www.w3.org/2000/svg" viewBox="0 -1000 1000 1000">
	<path fill="#000000" d="M792 -765L763 -756C781 -720 810 -656 824 -613L857 -626C840 -667 810 -733 792 -765ZM887 -794L858 -784C878 -750 904 -688 920 -644L953 -657C935 -698 906 -760 887 -794ZM403 -106C403 -164 466 -204 557 -204C601 -204 641 -197 678 -185C679 -164 679 -147 679 -134C679 -61 653 -12 548 -12C459 -12 403 -45 403 -106ZM703 -741H664C666 -726 666 -704 666 -685C665 -651 665 -602 665 -551C627 -549 588 -548 550 -548C493 -548 444 -551 390 -556V-524C446 -520 492 -517 547 -517C586 -517 626 -518 665 -520C665 -433 673 -306 677 -216C640 -226 602 -232 560 -232C437 -232 373 -169 373 -104C373 -31 435 19 561 19C685 19 709 -61 709 -121C709 -137 709 -155 708 -173C774 -145 831 -100 887 -49L906 -80C850 -129 784 -177 707 -206C703 -306 695 -428 695 -522C759 -526 821 -533 881 -543V-575C825 -564 761 -557 695 -552C695 -597 695 -653 697 -686C698 -704 700 -721 703 -741ZM214 -738L176 -742C176 -731 174 -717 171 -698C159 -612 123 -423 123 -283C123 -150 139 -47 158 25L188 22C187 16 185 4 184 -5C183 -18 185 -34 188 -48C196 -90 235 -190 258 -246L235 -264C215 -215 185 -134 167 -79C156 -155 152 -208 152 -284C152 -405 179 -578 203 -694C206 -712 210 -726 214 -738Z"/>
</svg>