<svg xmlns="http://www.w3.org/2000/svg" viewBox="0 -1000 1000 1000">
	<path fill="#000000" d="M710 -752H673C676 -736 677 -712 677 -694C677 -650 677 -581 676 -527C557 -517 425 -505 319 -494C319 -559 320 -620 320 -662C320 -681 321 -706 322 -719H286C290 -694 290 -681 290 -662C290 -649 290 -576 289 -492C226 -485 175 -480 143 -478C122 -475 95 -473 61 -473L65 -434C93 -438 116 -441 146 -445C180 -449 230 -455 289 -461C289 -357 289 -244 290 -202C295 -59 308 -7 508 -7C612 -7 732 -17 798 -24L799 -59C744 -50 625 -39 509 -39C317 -39 323 -89 319 -204C318 -237 318 -351 319 -464C429 -475 563 -488 676 -496C674 -425 669 -331 662 -295C658 -270 650 -267 620 -267C595 -267 553 -272 515 -280L514 -249C533 -245 589 -236 626 -236C665 -236 684 -250 691 -285C702 -336 704 -434 706 -498C762 -501 811 -504 848 -504H907V-542C890 -541 872 -539 848 -538C806 -536 758 -533 707 -529C708 -579 708 -647 708 -694C708 -710 709 -734 710 -752Z"/>
</svg>