<svg xmlns="http://www.w3.org/2000/svg" viewBox="0 -1000 1000 1000">
	<path fill="#000000" d="M792 -733C792 -774 825 -808 866 -808C907 -808 941 -774 941 -733C941 -692 907 -659 866 -659C825 -659 792 -692 792 -733ZM762 -733C762 -675 808 -629 866 -629C924 -629 971 -675 971 -733C971 -791 924 -838 866 -838C808 -838 762 -791 762 -733ZM332 -746L293 -753C291 -732 289 -714 284 -696C274 -657 257 -607 229 -553C198 -494 119 -379 47 -329L79 -310C135 -354 210 -452 250 -528H551C540 -227 406 -89 316 -23C295 -7 269 8 248 15L283 40C445 -64 567 -219 581 -528H779C802 -528 837 -527 862 -526V-562C837 -558 803 -558 779 -558H265C289 -608 302 -650 314 -687C320 -707 326 -726 332 -746Z"/>
</svg>