<svg xmlns="http://www.w3.org/2000/svg" viewBox="0 -1000 1000 1000">
	<path fill="#000000" d="M245 -360C245 -323 238 -281 231 -246C195 -243 160 -239 142 -239C128 -238 118 -238 103 -239L106 -204C118 -206 134 -208 143 -209C160 -210 191 -213 224 -216C207 -147 163 -15 109 58L139 72C202 -29 236 -143 255 -219C285 -221 313 -223 329 -223C364 -223 385 -212 384 -164C383 -100 376 -25 354 17C343 38 329 42 307 42C292 42 266 39 241 31L244 65C260 68 286 73 306 73C349 73 366 60 382 26C404 -18 415 -102 415 -167C415 -240 369 -253 329 -253C316 -253 291 -251 262 -249C270 -285 275 -327 278 -339C279 -347 280 -352 281 -358ZM529 -821C529 -815 529 -807 527 -797C520 -750 500 -650 500 -573C500 -500 509 -438 520 -398L550 -401C549 -405 547 -413 546 -418C546 -426 547 -436 549 -443C554 -467 574 -517 586 -547L564 -566C555 -540 542 -509 535 -479C531 -517 531 -530 531 -573C531 -640 545 -729 559 -794C561 -804 563 -811 565 -817ZM669 -767C705 -765 748 -765 790 -767V-671C747 -670 703 -670 660 -673V-643C702 -641 747 -641 790 -642C791 -611 793 -574 795 -543C779 -547 761 -548 743 -548C667 -547 641 -506 641 -478C641 -428 686 -406 742 -406C788 -406 827 -424 828 -472V-501C862 -488 893 -466 922 -436L939 -465C908 -493 872 -520 826 -535C825 -569 822 -609 821 -643C859 -645 894 -648 922 -651V-681C893 -678 858 -674 821 -672V-768C855 -770 886 -773 909 -775V-806C849 -798 743 -791 669 -798ZM438 -282C475 -240 521 -147 540 -97L568 -114C548 -162 499 -258 465 -298ZM670 -478C670 -501 704 -517 743 -517C761 -517 779 -515 796 -511C797 -500 797 -492 797 -486C797 -456 786 -436 743 -436C694 -436 670 -452 670 -478Z"/>
</svg>