<svg xmlns="http://www.w3.org/2000/svg" viewBox="0 -1000 1000 1000">
	<path fill="#000000" d="M333 -131C333 -56 368 -14 509 -14C647 -14 724 -20 817 -33L819 -70C722 -51 644 -44 520 -44C395 -44 363 -65 363 -138V-460C565 -501 797 -547 797 -547C766 -483 687 -359 607 -283L636 -265C722 -356 786 -467 833 -547C838 -555 844 -565 850 -572L828 -590C822 -586 809 -581 793 -578C758 -570 549 -527 363 -491V-678C363 -701 365 -718 369 -745H328C333 -718 333 -703 333 -678V-485C223 -463 125 -445 83 -440L90 -404C128 -412 224 -432 333 -454Z"/>
</svg>