<svg xmlns="http://www.w3.org/2000/svg" viewBox="0 -1000 1000 1000">
	<path fill="#000000" d="M531 -123C531 -162 567 -205 644 -205C703 -205 755 -183 798 -153C770 -85 720 -40 639 -40C571 -40 531 -73 531 -123ZM565 -761L525 -762C528 -735 527 -712 525 -688C523 -667 521 -645 518 -620C404 -604 315 -551 251 -491C229 -549 208 -613 195 -668L162 -658C172 -636 183 -604 194 -568C203 -541 215 -505 229 -468C210 -447 193 -426 180 -406C135 -342 104 -264 104 -173C104 -96 148 -41 207 -41C328 -41 425 -187 492 -365C521 -444 534 -520 544 -595C557 -596 571 -597 585 -597C751 -597 831 -472 831 -354C831 -293 825 -234 809 -184C763 -212 708 -233 644 -233C563 -233 502 -185 502 -122C502 -56 554 -10 639 -10C727 -10 788 -55 824 -135C863 -103 894 -67 917 -39L941 -68C916 -96 881 -134 836 -166C853 -218 862 -282 862 -355C862 -530 726 -625 586 -625C573 -625 560 -624 548 -624C550 -647 553 -670 556 -693C559 -714 562 -746 565 -761ZM134 -174C134 -251 154 -312 202 -388C214 -406 226 -423 240 -439C257 -395 275 -352 288 -323C306 -282 339 -225 369 -186C320 -115 264 -71 206 -71C172 -71 134 -110 134 -174ZM313 -339C301 -367 282 -411 262 -462C329 -530 415 -576 514 -592C504 -520 489 -442 467 -380C443 -317 416 -260 387 -213C359 -250 330 -301 313 -339Z"/>
</svg>