<svg xmlns="http://www.w3.org/2000/svg" viewBox="0 -1000 1000 1000">
	<path fill="#000000" d="M803 -642L800 -644C788 -657 780 -674 780 -694C780 -734 812 -767 852 -767C892 -767 925 -734 925 -694C925 -654 892 -622 852 -622C833 -622 816 -629 803 -641ZM226 -654C194 -654 172 -656 148 -659V-621C172 -622 192 -624 225 -624H764C751 -521 697 -362 625 -267C541 -157 432 -77 249 -27L276 2C458 -54 561 -138 651 -249C724 -341 775 -503 794 -611C810 -600 830 -593 852 -593C908 -593 954 -638 954 -694C954 -750 908 -796 852 -796C796 -796 751 -750 751 -694C751 -680 754 -666 759 -654Z"/>
</svg>