<svg xmlns="http://www.w3.org/2000/svg" viewBox="0 -1000 1000 1000">
	<path fill="#000000" d="M484 -760H443C447 -737 449 -710 449 -688C449 -648 447 -611 444 -576H243C205 -576 175 -578 148 -580V-543C176 -546 201 -546 244 -546H441C413 -287 316 -156 217 -76C198 -60 168 -37 146 -27L175 -2C327 -104 436 -242 470 -546H793C793 -443 781 -160 737 -73C725 -50 703 -45 678 -45C635 -45 582 -48 526 -54L530 -20C583 -17 638 -15 680 -15C721 -15 745 -25 764 -59C809 -146 821 -440 824 -522C825 -536 826 -548 829 -565L803 -579C793 -578 780 -576 753 -576H473C476 -611 479 -649 480 -689C481 -712 482 -738 484 -760Z"/>
</svg>