<svg xmlns="http://www.w3.org/2000/svg" viewBox="0 -1000 1000 1000">
	<path fill="#000000" d="M757 -694L731 -681C756 -644 803 -564 823 -526L852 -541C830 -578 780 -659 757 -694ZM867 -736L842 -722C868 -688 914 -613 938 -572L965 -587C941 -629 892 -703 867 -736ZM519 -736L482 -750C476 -734 468 -718 457 -697C403 -602 176 -198 104 2L138 13C149 -32 198 -154 232 -213C273 -289 364 -379 455 -379C508 -379 540 -349 541 -298C544 -231 541 -159 544 -97C546 -52 564 15 665 15C798 15 875 -92 927 -240L899 -261C876 -173 802 -16 669 -16C616 -16 576 -41 574 -99C572 -154 573 -226 571 -298C569 -371 519 -408 462 -408C405 -408 341 -381 284 -318C337 -421 448 -620 488 -686C499 -706 512 -725 519 -736Z"/>
</svg>