<svg xmlns="http://www.w3.org/2000/svg" viewBox="0 -1000 1000 1000">
	<path fill="#000000" d="M429 -121C429 -173 489 -208 574 -208C611 -208 647 -203 683 -193C684 -169 685 -149 685 -136C685 -78 669 -30 574 -30C485 -30 429 -59 429 -121ZM437 -690V-658C506 -654 591 -656 671 -659V-461C590 -458 504 -458 421 -464V-432C502 -427 589 -427 671 -431C672 -368 677 -288 681 -225C648 -233 612 -237 574 -237C447 -237 400 -173 400 -121C400 -42 469 0 572 0C656 0 713 -37 713 -109C713 -128 712 -154 711 -185C782 -160 848 -116 905 -57L924 -90C865 -143 795 -192 709 -217C706 -285 702 -366 701 -432C775 -435 844 -441 899 -446V-479C842 -472 774 -466 701 -462V-660C768 -664 830 -668 875 -673V-704C766 -690 573 -679 437 -690ZM235 -739L197 -742C197 -732 196 -718 193 -699C180 -613 144 -434 144 -293C144 -161 159 -58 179 14L209 11C208 5 206 -7 205 -16C204 -29 207 -44 210 -58C218 -100 257 -203 278 -257L256 -276C236 -229 206 -143 188 -89C178 -165 174 -219 174 -294C174 -416 200 -579 224 -695C227 -713 231 -726 235 -739Z"/>
</svg>