<svg xmlns="http://www.w3.org/2000/svg" viewBox="0 -1000 1000 1000">
	<path fill="#000000" d="M790 -695C790 -736 823 -770 864 -770C905 -770 939 -736 939 -695C939 -654 905 -621 864 -621C823 -621 790 -654 790 -695ZM760 -695C760 -637 806 -591 864 -591C922 -591 969 -637 969 -695C969 -753 922 -800 864 -800C806 -800 760 -753 760 -695ZM457 -763H418C422 -740 423 -712 423 -689C423 -648 421 -609 418 -573H210C171 -573 140 -575 112 -577V-540C141 -543 166 -543 211 -543H415C385 -274 285 -139 183 -57C163 -41 132 -18 110 -7L139 17C291 -85 406 -229 442 -543H777C777 -437 765 -145 718 -55C706 -31 683 -25 658 -25C613 -25 559 -28 501 -34L505 -1C560 2 617 4 660 4C702 4 727 -6 746 -41C793 -131 805 -433 808 -517C809 -532 810 -544 813 -562L786 -576C776 -575 763 -573 735 -573H446C449 -610 452 -649 453 -690C454 -714 455 -741 457 -763Z"/>
</svg>