<svg xmlns="http://www.w3.org/2000/svg" viewBox="0 -1000 1000 1000">
	<path fill="#000000" d="M255 12C373 12 438 -64 438 -164C438 -268 388 -304 329 -348V-352C375 -401 416 -470 416 -542C416 -640 357 -716 251 -716C163 -716 94 -650 94 -552C94 -476 138 -426 181 -388V-384C123 -348 60 -286 60 -180C60 -70 135 12 255 12ZM297 -364C209 -402 132 -456 132 -552C132 -630 183 -684 251 -684C331 -684 378 -617 378 -542C378 -474 349 -417 297 -364ZM255 -20C159 -20 98 -90 98 -180C98 -272 147 -324 209 -368C308 -322 400 -280 400 -164C400 -82 349 -20 255 -20Z"/>
</svg>