<svg xmlns="http://www.w3.org/2000/svg" viewBox="0 -1000 1000 1000">
	<path fill="#000000" d="M413 -774C410 -738 400 -690 383 -643C355 -642 328 -642 302 -642C262 -642 198 -645 143 -652V-617C198 -614 256 -612 300 -612C323 -612 346 -612 371 -613C344 -552 286 -435 134 -283L166 -262C198 -299 226 -335 253 -359C305 -405 367 -435 437 -435C498 -435 538 -403 539 -351V-346C537 -344 534 -343 532 -342C417 -281 313 -213 313 -111C313 0 422 24 551 24C628 24 726 17 810 7L811 -27C725 -14 624 -7 554 -7C447 -7 344 -17 344 -113C344 -195 431 -257 537 -312L539 -313C540 -257 539 -173 537 -127H572C571 -178 570 -273 570 -329C656 -373 742 -405 808 -432C827 -440 845 -448 865 -453L848 -488C830 -478 817 -472 796 -462C734 -433 652 -402 570 -361C565 -425 510 -463 442 -463C391 -463 331 -444 282 -410C331 -470 375 -545 403 -614C511 -617 632 -626 733 -643V-675C635 -658 521 -648 414 -644C432 -694 439 -736 447 -771Z"/>
</svg>