<svg xmlns="http://www.w3.org/2000/svg" viewBox="0 -1000 1000 1000">
	<path fill="#000000" d="M265 13C390 13 475 -68 475 -169C475 -264 411 -311 352 -349V-353C391 -386 452 -455 452 -535C452 -638 384 -717 265 -717C165 -717 86 -647 86 -548C86 -473 136 -420 187 -387V-383C121 -348 44 -277 44 -180C44 -70 136 13 265 13ZM318 -364C223 -401 123 -443 123 -548C123 -626 181 -685 265 -685C361 -685 416 -615 416 -535C416 -471 381 -415 318 -364ZM265 -20C158 -20 81 -91 81 -180C81 -262 137 -322 214 -366C326 -322 437 -284 437 -169C437 -87 370 -20 265 -20Z"/>
</svg>