<svg xmlns="http://www.w3.org/2000/svg" viewBox="0 -1000 1000 1000">
	<path fill="#000000" d="M796 -725C796 -765 828 -798 868 -798C908 -798 941 -765 941 -725C941 -685 908 -653 868 -653C828 -653 796 -685 796 -725ZM767 -725C767 -669 812 -624 868 -624C924 -624 970 -669 970 -725C970 -781 924 -827 868 -827C812 -827 767 -781 767 -725ZM475 -734L435 -746C432 -730 423 -704 418 -694C380 -604 275 -446 110 -350L139 -331C255 -406 333 -495 386 -574H766C741 -470 678 -335 595 -233C503 -122 369 -33 210 13L238 39C419 -24 535 -112 619 -215C704 -318 768 -451 794 -560C796 -567 802 -585 808 -594L777 -610C768 -605 757 -604 735 -604H405C422 -631 436 -657 447 -680C455 -696 466 -717 475 -734Z"/>
</svg>