<svg xmlns="http://www.w3.org/2000/svg" viewBox="0 -1000 1000 1000">
	<path fill="#000000" d="M793 -695C793 -736 825 -770 867 -770C907 -770 941 -736 941 -695C941 -655 907 -620 867 -620C825 -620 793 -655 793 -695ZM763 -695C763 -637 808 -591 867 -591C924 -591 972 -637 972 -695C972 -754 924 -800 867 -800C808 -800 763 -754 763 -695ZM245 -661V-630C320 -623 402 -619 496 -619C583 -619 676 -627 741 -631V-662C675 -655 588 -649 496 -649C403 -649 314 -652 245 -661ZM242 -286L210 -290C199 -248 189 -203 189 -158C189 -47 307 10 482 10C624 10 755 -6 810 -25L809 -59C748 -36 621 -21 482 -21C310 -21 219 -76 219 -163C219 -202 226 -244 242 -286Z"/>
</svg>