<svg xmlns="http://www.w3.org/2000/svg" viewBox="0 -1000 1000 1000">
	<path fill="#000000" d="M263 -696C329 -702 571 -708 609 -709C487 -640 262 -508 156 -431L178 -405C263 -467 325 -509 382 -533C435 -555 510 -563 564 -563C664 -563 755 -517 755 -432C755 -341 636 -288 515 -288H502C540 -308 567 -335 567 -369C567 -424 514 -454 445 -454C385 -454 314 -422 314 -364C314 -325 338 -294 394 -276C306 -216 174 -102 80 2L112 22C176 -58 248 -141 324 -141C391 -141 437 -99 464 -21C468 -10 469 9 470 17H500C501 8 503 -9 508 -22C536 -100 608 -156 675 -156C756 -156 825 -97 873 25L905 11C855 -103 777 -186 677 -186C594 -186 519 -120 486 -42C459 -122 393 -181 293 -162C323 -189 386 -238 430 -267C454 -263 482 -261 514 -261C658 -261 785 -322 785 -433C785 -541 675 -589 567 -589C523 -589 476 -583 431 -572C513 -620 649 -703 691 -720L668 -747C660 -743 634 -739 607 -738C561 -737 328 -730 308 -730C292 -730 278 -731 261 -733ZM344 -364C344 -407 399 -426 443 -426C493 -426 536 -407 536 -369C536 -337 492 -307 449 -292C374 -302 344 -330 344 -364Z"/>
</svg>