<svg xmlns="http://www.w3.org/2000/svg" viewBox="0 -1000 1000 1000">
	<path fill="#000000" d="M793 -693C793 -734 825 -768 866 -768C906 -768 940 -734 940 -693C940 -653 906 -621 866 -621C825 -621 793 -653 793 -693ZM763 -693C763 -636 808 -590 866 -590C923 -590 970 -636 970 -693C970 -751 923 -797 866 -797C808 -797 763 -751 763 -693ZM398 -764L359 -767C358 -697 345 -614 330 -549C261 -543 192 -537 158 -536C131 -535 114 -535 87 -536L92 -497C113 -500 143 -503 160 -504C192 -506 257 -513 323 -519C294 -398 213 -144 109 -5L142 8C259 -179 320 -385 355 -522C412 -527 466 -531 497 -531C561 -531 609 -511 609 -410C609 -295 591 -158 556 -81C531 -29 498 -24 459 -24C429 -24 382 -29 338 -44L343 -7C372 -1 419 7 456 7C509 7 552 -4 581 -66C622 -145 639 -298 639 -415C639 -539 570 -560 498 -560C472 -560 419 -556 362 -551C376 -621 387 -705 391 -729C393 -743 395 -754 398 -764ZM735 -636L706 -620C774 -545 862 -359 893 -256L924 -271C889 -371 797 -562 735 -636Z"/>
</svg>