<svg xmlns="http://www.w3.org/2000/svg" viewBox="0 -1000 1000 1000">
	<path fill="#000000" d="M680 -582C680 -626 716 -662 761 -662C806 -662 842 -626 842 -582C842 -537 806 -501 761 -501C716 -501 680 -537 680 -582ZM651 -582C651 -522 701 -472 761 -472C821 -472 871 -522 871 -582C871 -642 821 -692 761 -692C701 -692 651 -642 651 -582ZM83 -241L112 -213C125 -228 145 -253 162 -272C211 -327 304 -444 358 -508C397 -553 413 -558 457 -516C504 -472 598 -374 653 -314C721 -239 811 -141 883 -55L910 -82C835 -163 741 -266 675 -335C619 -394 527 -491 475 -540C417 -596 383 -585 338 -531C282 -466 189 -346 141 -297C119 -275 105 -260 83 -241Z"/>
</svg>