<svg xmlns="http://www.w3.org/2000/svg" viewBox="0 -1000 1000 1000">
	<path fill="#000000" d="M421 -690C422 -684 432 -638 445 -574C347 -559 253 -545 211 -540C180 -537 157 -535 139 -534L147 -494C171 -499 191 -503 215 -507C260 -514 353 -529 451 -545C465 -475 482 -390 498 -311C376 -291 255 -272 203 -265C183 -262 153 -259 132 -258L140 -219C160 -224 181 -229 215 -235C267 -244 384 -263 503 -283C526 -173 544 -80 547 -67C553 -39 557 -13 562 17L600 9C591 -20 584 -46 578 -73C576 -85 557 -177 534 -288C639 -304 741 -321 801 -330C837 -336 859 -340 874 -342L867 -377C852 -372 832 -368 795 -361C741 -352 636 -334 529 -316C512 -395 495 -480 481 -550C586 -566 690 -583 738 -590C760 -594 780 -597 787 -598L780 -634C770 -631 757 -627 731 -622C683 -613 579 -596 475 -579C462 -645 452 -692 451 -698C447 -718 443 -740 442 -757L406 -750C412 -732 416 -712 421 -690Z"/>
</svg>