<svg xmlns="http://www.w3.org/2000/svg" viewBox="0 -1000 1000 1000">
	<path fill="#000000" d="M788 -692C788 -733 821 -766 862 -766C902 -766 935 -733 935 -692C935 -652 902 -619 862 -619C821 -619 788 -652 788 -692ZM759 -692C759 -635 804 -589 862 -589C919 -589 966 -635 966 -692C966 -750 919 -796 862 -796C804 -796 759 -750 759 -692ZM273 -257L237 -266C217 -226 203 -192 203 -144C203 -31 299 26 487 26C575 26 638 21 707 9V-26C635 -11 576 -4 485 -4C311 -4 233 -56 233 -144C233 -189 249 -222 273 -257ZM515 -701C520 -683 525 -663 532 -641C437 -633 313 -636 194 -651L197 -616C318 -605 445 -603 540 -611C550 -581 560 -548 572 -517C580 -496 589 -473 598 -451C487 -438 322 -436 174 -452L176 -418C328 -406 492 -408 610 -423C637 -361 670 -298 707 -245C674 -251 602 -259 539 -267L536 -238C600 -232 679 -223 733 -209L756 -239C745 -249 734 -260 727 -272C692 -322 664 -374 641 -427C719 -438 790 -452 836 -466L831 -500C786 -485 706 -466 629 -454C618 -479 609 -503 600 -527C592 -551 581 -582 571 -615C637 -623 693 -635 749 -648L743 -681C685 -663 632 -651 562 -643C549 -689 537 -736 533 -772L494 -765C501 -748 509 -723 515 -701Z"/>
</svg>