<svg xmlns="http://www.w3.org/2000/svg" viewBox="0 -1000 1000 1000">
	<path fill="#000000" d="M717 -811L691 -800C714 -768 751 -708 770 -669L797 -683C776 -721 738 -781 717 -811ZM831 -835L805 -824C830 -793 863 -735 886 -696L913 -708C891 -748 854 -805 831 -835ZM183 -634V-598C201 -599 245 -600 276 -600H769V-86H264C227 -86 187 -89 170 -91V-53C191 -54 224 -55 265 -55H769C769 -25 767 2 767 2H802C802 2 799 -34 799 -70V-570C799 -587 800 -610 801 -631C779 -630 761 -630 742 -630H275C246 -630 211 -632 183 -634Z"/>
</svg>