<svg xmlns="http://www.w3.org/2000/svg" viewBox="0 -1000 1000 1000">
	<path fill="#000000" d="M162 -131C162 -187 245 -263 345 -305C346 -219 348 -124 348 -75C348 -44 335 -20 307 -20C255 -20 162 -72 162 -131ZM877 -813C907 -774 938 -722 959 -680L987 -694C962 -742 927 -796 903 -826ZM776 -778C805 -739 836 -686 856 -643L884 -658C860 -707 826 -760 803 -791ZM701 -616C766 -578 858 -518 908 -465L928 -492C885 -533 784 -604 719 -641ZM346 -785C349 -770 350 -751 350 -732C350 -714 349 -655 347 -586C312 -583 279 -581 252 -581C215 -581 186 -583 135 -590L136 -558C169 -555 205 -553 252 -553C278 -553 311 -555 346 -559C345 -497 344 -430 344 -379V-336C237 -290 129 -208 129 -130C129 -57 251 12 310 12C353 12 377 -14 377 -76C377 -129 374 -229 373 -317C460 -351 532 -369 621 -369C723 -369 817 -317 817 -216C817 -103 722 -50 628 -30C587 -21 546 -22 515 -23L526 8C555 8 599 7 642 -3C758 -29 848 -94 848 -217C848 -319 760 -397 621 -397C545 -397 457 -379 373 -347V-382C373 -432 374 -500 376 -562C456 -572 545 -587 604 -602L603 -634C543 -615 456 -599 377 -590C379 -657 381 -715 381 -734C382 -756 383 -768 385 -785Z"/>
</svg>