<svg xmlns="http://www.w3.org/2000/svg" viewBox="0 -1000 1000 1000">
	<path fill="#000000" d="M783 -745C783 -786 816 -820 857 -820C898 -820 932 -786 932 -745C932 -704 898 -671 857 -671C816 -671 783 -704 783 -745ZM753 -745C753 -687 799 -641 857 -641C915 -641 962 -687 962 -745C962 -803 915 -850 857 -850C799 -850 753 -803 753 -745ZM396 -683C398 -677 408 -630 421 -563C320 -547 223 -533 179 -528C147 -525 124 -523 105 -522L113 -481C138 -486 159 -490 183 -494C229 -502 326 -517 428 -533C442 -462 460 -374 476 -292C350 -271 225 -252 171 -245C150 -242 119 -239 98 -238L106 -197C127 -203 148 -208 183 -214C236 -223 358 -243 482 -263C505 -150 524 -55 526 -41C533 -12 537 15 542 46L581 37C571 13 564 -19 557 -47C554 -59 535 -154 511 -268C619 -285 725 -302 787 -312C824 -318 847 -322 862 -324L855 -360C839 -355 819 -351 781 -344C725 -334 617 -316 505 -297C489 -378 471 -466 456 -538C564 -555 672 -572 722 -580C745 -584 765 -587 773 -588L765 -625C755 -622 742 -618 715 -613C666 -604 558 -585 450 -568C436 -636 427 -685 426 -691C423 -711 418 -734 417 -752L380 -744C386 -726 392 -706 396 -683Z"/>
</svg>