<svg xmlns="http://www.w3.org/2000/svg" viewBox="0 -1000 1000 1000">
	<path fill="#000000" d="M272 -725L274 -686C286 -687 310 -689 337 -691C381 -694 600 -704 647 -707C583 -652 402 -493 281 -403C232 -397 160 -389 106 -384L109 -350C246 -372 399 -387 518 -398C453 -371 365 -292 365 -186C365 -47 481 28 708 18L715 -16C681 -13 644 -11 583 -19C492 -31 397 -68 397 -188C397 -292 508 -388 609 -403C666 -412 759 -414 857 -410V-444C695 -444 503 -428 336 -409C426 -481 610 -635 686 -698C694 -705 708 -715 714 -719L692 -743C682 -740 667 -738 654 -737C601 -731 379 -722 335 -722C308 -722 289 -723 272 -725Z"/>
</svg>