<svg xmlns="http://www.w3.org/2000/svg" viewBox="0 -1000 1000 1000">
	<path fill="#000000" d="M285 156C339 156 383 136 425 96L407 70C373 106 335 124 285 124C169 124 85 12 85 -270C85 -554 177 -658 289 -658C383 -658 420 -558 420 -434V-420C270 -396 192 -330 192 -222C192 -134 239 -96 302 -96C356 -96 392 -136 418 -176H422L426 -110H454V-436C454 -580 401 -690 291 -690C153 -690 47 -578 47 -272C47 38 155 156 285 156ZM305 -128C257 -128 230 -160 230 -222C230 -306 282 -364 418 -390V-222C380 -158 348 -128 305 -128Z"/>
</svg>