<svg xmlns="http://www.w3.org/2000/svg" viewBox="0 -1000 1000 1000">
	<path fill="#000000" d="M797 -701C797 -743 830 -778 873 -778C914 -778 948 -743 948 -701C948 -660 914 -625 873 -625C830 -625 797 -660 797 -701ZM767 -701C767 -642 813 -595 873 -595C931 -595 980 -642 980 -701C980 -761 931 -808 873 -808C813 -808 767 -761 767 -701ZM238 -666V-635C314 -628 398 -624 494 -624C583 -624 678 -632 744 -636V-667C676 -660 588 -653 494 -653C399 -653 308 -657 238 -666ZM234 -283L203 -287C192 -244 182 -199 182 -153C182 -39 302 18 480 18C624 18 758 1 814 -18L813 -49C751 -25 621 -10 480 -10C304 -10 210 -68 210 -158C210 -198 218 -240 234 -283Z"/>
</svg>