<svg xmlns="http://www.w3.org/2000/svg" viewBox="0 -1000 1000 1000">
	<path fill="#000000" d="M908 -665L888 -686C878 -684 861 -682 851 -682H241C208 -682 167 -685 136 -689V-648C167 -650 208 -652 241 -652H859C820 -577 710 -448 606 -391L635 -368C764 -456 859 -587 892 -645C897 -653 903 -659 908 -665ZM516 -536H481C483 -516 483 -498 483 -481C483 -312 463 -133 280 -31C261 -20 228 -4 206 3L236 28C474 -80 516 -242 516 -536ZM767 -831L738 -821C761 -788 784 -748 803 -708L834 -720C813 -759 789 -799 767 -831ZM887 -845L858 -835C882 -802 904 -765 924 -722L955 -734C933 -776 910 -813 887 -845Z"/>
</svg>