<svg xmlns="http://www.w3.org/2000/svg" viewBox="0 -1000 1000 1000">
	<path fill="#000000" d="M711 -514L684 -502C713 -463 748 -402 768 -360L795 -374C771 -422 732 -484 711 -514ZM816 -552L790 -539C820 -500 855 -440 875 -398L903 -411C878 -459 838 -521 816 -552ZM82 -625L87 -584C186 -604 481 -633 601 -646C488 -589 371 -451 371 -286C371 -60 600 24 759 25L770 -9C617 -12 403 -73 403 -294C403 -409 495 -580 656 -639C703 -656 798 -657 857 -657V-690C796 -688 709 -683 596 -673C444 -660 206 -636 161 -630C141 -628 118 -626 82 -625Z"/>
</svg>