<svg xmlns="http://www.w3.org/2000/svg" viewBox="0 -1000 1000 1000">
	<path fill="#000000" d="M708 -562C708 -599 736 -625 769 -625C804 -625 832 -599 832 -562C832 -529 804 -501 769 -501C736 -501 708 -529 708 -562ZM682 -562C682 -514 721 -474 769 -474C818 -474 857 -514 857 -562C857 -611 818 -650 769 -650C721 -650 682 -611 682 -562ZM731 -470L708 -487C700 -484 689 -483 681 -483H245C217 -483 195 -484 174 -487V-451C195 -452 215 -453 244 -453H695C683 -365 640 -233 577 -152C507 -59 399 15 267 46L293 77C431 35 526 -41 602 -136C664 -214 707 -344 723 -436C726 -451 727 -462 731 -470Z"/>
</svg>