<svg xmlns="http://www.w3.org/2000/svg" viewBox="0 -1000 1000 1000">
	<path fill="#000000" d="M787 -776L761 -763C789 -725 820 -670 839 -628L866 -643C843 -690 809 -746 787 -776ZM884 -810L859 -797C888 -759 919 -705 939 -664L966 -678C942 -724 907 -781 884 -810ZM632 -753H589C592 -738 594 -722 596 -690C597 -674 597 -630 598 -572H215C188 -572 172 -573 143 -576V-540C170 -542 184 -543 215 -543H591C515 -422 329 -233 124 -130L148 -104C342 -207 523 -385 599 -501C601 -350 603 -153 603 -64C603 -39 594 -28 565 -28C525 -28 470 -32 420 -40L422 -3C463 0 524 3 565 3C610 3 634 -17 634 -57C634 -170 631 -392 629 -543H812C833 -543 862 -541 878 -540V-576C862 -574 832 -572 813 -572H628C628 -630 627 -674 627 -690C627 -712 629 -730 632 -753Z"/>
</svg>