<svg xmlns="http://www.w3.org/2000/svg" viewBox="0 -1000 1000 1000">
	<path fill="#000000" d="M736 -808L710 -797C733 -765 770 -705 790 -666L817 -680C795 -718 758 -778 736 -808ZM851 -832L825 -821C850 -790 883 -732 905 -693L932 -705C910 -745 873 -802 851 -832ZM812 -642L789 -657C778 -654 770 -654 760 -654H236C204 -654 182 -656 158 -659V-621C182 -622 202 -624 235 -624H774C761 -521 707 -362 635 -267C551 -157 442 -77 259 -27L286 2C468 -54 571 -138 661 -249C734 -341 785 -503 804 -611C807 -629 808 -633 812 -642Z"/>
</svg>