<svg xmlns="http://www.w3.org/2000/svg" viewBox="0 -1000 1000 1000">
	<path fill="#000000" d="M768 -737L741 -728C759 -694 787 -630 802 -589L831 -600C815 -641 785 -705 768 -737ZM861 -765L833 -756C853 -722 879 -662 895 -618L925 -629C909 -671 880 -732 861 -765ZM667 -454V-490H808C843 -490 879 -487 879 -487V-525C879 -524 843 -521 808 -521H667V-660C667 -696 671 -729 671 -729H632C632 -729 636 -696 636 -660V-521H316V-672C316 -700 319 -725 319 -725H283C285 -710 286 -685 286 -671V-521H158C124 -521 69 -525 69 -525V-487C69 -487 123 -490 158 -490H286V-307C286 -277 282 -233 282 -233H319C319 -233 316 -279 316 -307V-490H636V-446C636 -140 543 -58 378 12L404 38C613 -58 667 -177 667 -454Z"/>
</svg>