<svg xmlns="http://www.w3.org/2000/svg" viewBox="0 -1000 1000 1000">
	<path fill="#000000" d="M709 -641L682 -628C711 -589 742 -536 763 -493L790 -507C767 -556 730 -610 709 -641ZM807 -676L781 -663C811 -624 842 -571 864 -529L891 -543C867 -590 829 -646 807 -676ZM252 -725L254 -686C266 -687 290 -689 317 -691C361 -694 580 -704 627 -707C563 -652 382 -493 261 -403C212 -397 140 -389 86 -384L89 -350C225 -372 379 -387 498 -398C433 -371 345 -292 345 -186C345 -47 461 28 688 18L695 -16C661 -13 624 -11 563 -19C472 -31 376 -68 376 -188C376 -292 488 -388 589 -403C646 -412 739 -414 837 -410V-444C675 -444 483 -428 316 -409C406 -481 590 -635 666 -698C674 -705 688 -715 693 -719L672 -743C662 -740 647 -738 634 -737C581 -731 359 -722 315 -722C288 -722 269 -723 252 -725Z"/>
</svg>