<svg xmlns="http://www.w3.org/2000/svg" viewBox="0 -1000 1000 1000">
	<path fill="#000000" d="M637 -753H594C597 -738 599 -722 601 -690C602 -674 602 -630 603 -572H220C193 -572 177 -573 148 -576V-539C175 -541 189 -542 220 -542H595C519 -421 333 -233 129 -130L153 -104C347 -207 528 -385 604 -501C606 -350 608 -153 608 -64C608 -39 599 -28 570 -28C530 -28 475 -32 425 -40L427 -3C468 0 529 3 570 3C615 3 639 -17 639 -57C639 -169 636 -391 634 -542H817C838 -542 867 -540 883 -539V-576C867 -574 837 -572 818 -572H633C633 -630 632 -674 632 -690C632 -712 634 -730 637 -753Z"/>
</svg>