<svg xmlns="http://www.w3.org/2000/svg" viewBox="0 -1000 1000 1000">
	<path fill="#000000" d="M794 -727C794 -767 826 -800 866 -800C906 -800 939 -767 939 -727C939 -687 906 -655 866 -655C826 -655 794 -687 794 -727ZM765 -727C765 -670 810 -626 866 -626C922 -626 968 -670 968 -727C968 -783 922 -829 866 -829C810 -829 765 -783 765 -727ZM183 -634V-598C201 -599 245 -600 276 -600H769V-86H264C227 -86 187 -89 170 -91V-53C191 -54 224 -55 265 -55H769C769 -25 767 2 767 2H802C802 2 799 -34 799 -70V-570C799 -587 800 -610 801 -631C779 -630 761 -630 742 -630H275C246 -630 211 -632 183 -634Z"/>
</svg>