<svg xmlns="http://www.w3.org/2000/svg" viewBox="0 -1000 1000 1000">
	<path fill="#000000" d="M744 -789L718 -777C744 -741 780 -681 799 -643L826 -656C805 -699 769 -755 744 -789ZM842 -823L817 -811C845 -775 877 -721 900 -678L927 -691C907 -729 869 -788 842 -823ZM410 -675C411 -669 421 -623 434 -559C336 -544 242 -530 200 -525C169 -522 146 -520 128 -519L136 -479C160 -484 180 -488 204 -492C249 -499 342 -514 440 -530C454 -460 471 -375 487 -296C365 -276 244 -257 192 -250C172 -247 142 -244 121 -243L129 -204C149 -209 170 -214 204 -220C256 -229 373 -248 492 -268C515 -158 533 -65 536 -52C542 -24 546 2 551 32L589 24C580 -5 573 -31 567 -58C565 -70 546 -162 523 -273C628 -289 730 -306 790 -315C826 -321 848 -325 863 -327L856 -362C841 -357 821 -353 784 -346C730 -337 625 -319 518 -301C501 -380 484 -465 470 -535C575 -551 679 -568 727 -575C749 -579 769 -582 776 -583L769 -619C759 -616 746 -612 720 -607C672 -598 568 -581 464 -564C451 -630 441 -677 440 -683C436 -703 432 -725 431 -742L395 -735C401 -717 405 -697 410 -675Z"/>
</svg>