<svg xmlns="http://www.w3.org/2000/svg" viewBox="0 -1000 1000 1000">
	<path fill="#000000" d="M540 -701C547 -675 558 -637 577 -587C471 -577 318 -579 180 -595L182 -561C321 -550 471 -548 587 -559C622 -466 682 -360 728 -296C687 -301 611 -307 549 -312L547 -282C606 -279 721 -270 760 -258L781 -284C769 -296 757 -308 747 -323C699 -389 647 -479 616 -563C681 -571 775 -587 844 -607L841 -641C772 -614 674 -598 606 -590C585 -650 565 -709 558 -770L521 -765C528 -746 535 -721 540 -701ZM288 -303L254 -310C232 -261 211 -215 211 -166C211 -42 322 16 493 18C593 19 671 10 737 -1V-38C670 -21 587 -12 494 -13C340 -15 241 -63 241 -163C241 -214 260 -255 288 -303Z"/>
</svg>