<svg xmlns="http://www.w3.org/2000/svg" viewBox="0 -1000 1000 1000">
	<path fill="#000000" d="M789 -779L763 -767C791 -728 826 -668 845 -625L873 -640C849 -688 812 -749 789 -779ZM887 -814L862 -801C891 -763 926 -703 946 -662L974 -675C949 -722 911 -784 887 -814ZM451 -772L410 -773C410 -766 410 -753 408 -738C405 -714 402 -680 398 -640C367 -639 337 -639 307 -639C282 -639 197 -644 164 -650L165 -615C199 -612 276 -609 308 -609C336 -609 365 -609 395 -610C390 -560 385 -502 382 -445C252 -387 133 -258 133 -132C133 -65 177 -27 234 -27C285 -27 351 -53 412 -97C417 -73 424 -50 431 -27L465 -37C456 -64 448 -92 441 -121C539 -204 613 -314 668 -456C784 -433 846 -352 846 -262C846 -106 706 -20 541 -2L560 29C776 -6 881 -118 881 -260C881 -361 811 -455 678 -483C683 -496 688 -510 692 -523C696 -535 699 -543 703 -551L663 -562C662 -551 659 -542 657 -533C653 -518 649 -503 644 -489C628 -491 611 -492 593 -492C544 -492 475 -480 413 -457C416 -511 421 -565 426 -612C537 -616 653 -627 762 -645L761 -679C670 -660 550 -647 429 -642C434 -680 438 -713 442 -737C444 -748 447 -762 451 -772ZM410 -354C410 -377 411 -401 411 -424C462 -445 530 -463 598 -463C611 -463 623 -462 634 -461C586 -327 513 -229 432 -157C418 -222 410 -289 410 -354ZM169 -132C169 -241 265 -356 381 -411C380 -391 380 -371 380 -352C380 -279 389 -204 404 -133C340 -84 282 -62 233 -62C192 -62 169 -84 169 -132Z"/>
</svg>