<svg xmlns="http://www.w3.org/2000/svg" viewBox="0 -1000 1000 1000">
	<path fill="#000000" d="M524 -755L489 -770C483 -753 476 -737 465 -716C410 -619 170 -194 97 10L128 22C140 -24 191 -149 225 -209C267 -286 361 -380 454 -380C508 -380 540 -348 542 -296C545 -227 542 -154 545 -91C547 -45 565 23 668 23C804 23 880 -87 933 -237L909 -257C886 -168 808 -5 672 -5C618 -5 577 -32 575 -93C573 -149 574 -222 572 -296C570 -370 519 -408 461 -408C403 -408 337 -380 278 -315C332 -420 453 -637 492 -704C504 -725 517 -744 524 -755ZM761 -699L735 -686C760 -648 809 -567 830 -528L858 -543C836 -581 785 -664 761 -699ZM874 -742L848 -728C875 -693 922 -617 946 -575L974 -590C949 -633 899 -709 874 -742Z"/>
</svg>