<svg xmlns="http://www.w3.org/2000/svg" viewBox="0 -1000 1000 1000">
	<path fill="#000000" d="M679 -576C679 -621 716 -658 762 -658C807 -658 843 -621 843 -576C843 -531 807 -493 762 -493C716 -493 679 -531 679 -576ZM650 -576C650 -514 700 -464 762 -464C822 -464 873 -514 873 -576C873 -638 822 -688 762 -688C700 -688 650 -638 650 -576ZM71 -235L101 -207C115 -223 137 -246 155 -267C212 -333 303 -451 356 -515C395 -562 411 -571 460 -517C505 -468 581 -373 648 -300C719 -222 815 -116 893 -42L919 -70C835 -144 724 -261 669 -323C601 -394 528 -488 477 -542C420 -606 379 -593 333 -537C277 -469 189 -347 130 -289C108 -266 91 -249 71 -235Z"/>
</svg>