<svg xmlns="http://www.w3.org/2000/svg" viewBox="0 -1000 1000 1000">
	<path fill="#000000" d="M534 -770C539 -757 545 -737 548 -719C552 -703 558 -671 563 -629C391 -609 239 -471 191 -296C182 -386 206 -584 220 -661C223 -677 225 -687 227 -693L189 -696C190 -686 190 -678 189 -664C184 -614 162 -467 162 -354C162 -264 176 -173 191 -118L219 -124C213 -147 206 -187 204 -212C202 -238 208 -269 213 -286C254 -432 385 -580 566 -601C572 -551 576 -491 576 -426C576 -316 563 -226 534 -154C457 -173 401 -226 364 -309L338 -287C380 -204 442 -147 521 -126C489 -61 442 -11 376 24L403 43C472 3 520 -51 552 -119C567 -117 582 -116 597 -116C792 -116 884 -237 884 -389C884 -522 785 -632 607 -632H592C585 -690 577 -739 569 -772ZM609 -603C772 -603 854 -504 854 -386C854 -233 748 -146 602 -146C589 -146 577 -147 564 -148C593 -225 605 -318 605 -427C605 -487 601 -548 596 -603Z"/>
</svg>