<svg xmlns="http://www.w3.org/2000/svg" viewBox="0 -1000 1000 1000">
	<path fill="#000000" d="M180 -202H213C191 -373 377 -445 377 -596C377 -687 318 -761 212 -761C138 -761 81 -724 40 -678L63 -657C100 -702 155 -728 209 -728C301 -728 340 -664 340 -593C340 -451 156 -387 180 -202ZM201 2C221 2 242 -13 242 -41C242 -70 221 -86 201 -86C180 -86 161 -70 161 -41C161 -13 180 2 201 2ZM592 -202H625C603 -373 789 -445 789 -596C789 -687 730 -761 624 -761C550 -761 493 -724 452 -678L475 -657C512 -702 567 -728 621 -728C713 -728 752 -664 752 -593C752 -451 568 -387 592 -202ZM613 2C633 2 654 -13 654 -41C654 -70 633 -86 613 -86C592 -86 573 -70 573 -41C573 -13 592 2 613 2Z"/>
</svg>