<svg xmlns="http://www.w3.org/2000/svg" viewBox="0 -1000 1000 1000">
	<path fill="#000000" d="M781 -784L753 -772C783 -734 813 -682 832 -641L860 -655C837 -703 803 -754 781 -784ZM884 -811L858 -798C887 -760 919 -710 939 -669L966 -682C942 -729 907 -781 884 -811ZM162 -615V-579C185 -581 221 -582 233 -582H481V-83H182C157 -83 132 -85 106 -88V-51C133 -53 157 -54 182 -54H824C840 -54 870 -54 894 -51V-88C870 -86 849 -83 824 -83H513V-582H771C798 -582 826 -581 847 -579V-615C827 -613 801 -611 771 -611H233C219 -611 187 -612 162 -615Z"/>
</svg>