<svg xmlns="http://www.w3.org/2000/svg" viewBox="0 -1000 1000 1000">
	<path fill="#000000" d="M492 -766L454 -779C451 -763 440 -738 434 -728C393 -634 285 -476 121 -373L149 -352C269 -433 351 -530 406 -614H782C757 -516 701 -392 626 -293C551 -346 470 -400 392 -446L373 -426C449 -380 531 -323 606 -268C514 -160 368 -59 211 -13L240 13C419 -52 546 -149 630 -250C671 -219 709 -188 741 -160L764 -187C730 -215 691 -245 650 -275C728 -375 785 -499 811 -600C813 -607 819 -626 823 -634L794 -651C785 -646 774 -644 751 -644H426C441 -668 453 -691 464 -712C472 -728 482 -749 492 -766Z"/>
</svg>