<svg xmlns="http://www.w3.org/2000/svg" viewBox="0 -1000 1000 1000">
	<path fill="#000000" d="M671 -655L644 -643C673 -603 718 -527 737 -486L766 -499C741 -548 693 -624 671 -655ZM793 -701L768 -689C797 -650 841 -575 863 -534L890 -548C866 -595 816 -672 793 -701ZM71 -235L101 -207C115 -223 137 -246 155 -267C212 -333 303 -451 356 -515C395 -562 411 -571 460 -517C505 -468 581 -373 648 -300C719 -222 815 -116 893 -42L919 -70C835 -144 724 -261 669 -323C601 -394 528 -488 477 -542C420 -606 379 -593 333 -537C277 -469 189 -347 130 -289C108 -266 91 -249 71 -235Z"/>
</svg>