<svg xmlns="http://www.w3.org/2000/svg" viewBox="0 -1000 1000 1000">
	<path fill="#000000" d="M228 -698V-661C249 -663 271 -664 302 -664H654C677 -664 707 -663 731 -661V-698C708 -695 677 -694 654 -694H300C270 -694 252 -696 228 -698ZM774 -789L748 -777C774 -741 810 -682 828 -643L855 -656C834 -699 798 -755 774 -789ZM872 -823L847 -811C875 -775 907 -721 929 -678L956 -691C937 -729 898 -788 872 -823ZM110 -459V-424C136 -426 155 -426 185 -426H508C505 -324 491 -234 445 -159C408 -93 338 -38 257 -2L286 22C365 -19 437 -83 474 -145C516 -221 534 -318 537 -426H820C841 -426 865 -425 883 -424V-459C862 -457 841 -456 820 -456H185C155 -456 134 -457 110 -459Z"/>
</svg>