<svg xmlns="http://www.w3.org/2000/svg" viewBox="0 -1000 1000 1000">
	<path fill="#000000" d="M724 -800L696 -790C719 -758 750 -706 768 -667L798 -679C778 -717 746 -769 724 -800ZM836 -825L808 -816C831 -784 861 -734 881 -692L911 -704C889 -745 858 -794 836 -825ZM857 -623L835 -640C827 -637 809 -635 795 -635H242C209 -635 178 -637 149 -639V-602C149 -602 209 -605 242 -605H805C761 -529 679 -435 593 -382L624 -361C711 -428 791 -521 838 -597C844 -607 850 -614 857 -623ZM491 -475C491 -493 492 -503 493 -519H458C460 -503 460 -489 460 -475V-82H172C146 -82 121 -83 94 -86V-49C122 -51 146 -52 172 -52H826C843 -52 874 -52 899 -49V-86C874 -84 851 -82 826 -82H491Z"/>
</svg>