<svg xmlns="http://www.w3.org/2000/svg" viewBox="0 -1000 1000 1000">
	<path fill="#000000" d="M698 -715L671 -702C700 -664 743 -590 763 -549L790 -562C767 -610 719 -685 698 -715ZM817 -761L792 -748C821 -710 865 -636 885 -595L912 -609C888 -656 839 -731 817 -761ZM289 -725L273 -701C322 -672 432 -597 471 -564L491 -591C457 -617 340 -696 289 -725ZM177 -28L195 5C289 -16 418 -59 515 -117C666 -208 798 -336 877 -462L855 -491C776 -356 656 -235 499 -143C407 -89 283 -46 177 -28ZM147 -510L130 -484C183 -458 292 -388 333 -357L352 -385C318 -411 196 -482 147 -510Z"/>
</svg>