<svg xmlns="http://www.w3.org/2000/svg" viewBox="0 -1000 1000 1000">
	<path fill="#000000" d="M758 -616L732 -603C760 -565 791 -512 810 -471L838 -485C814 -532 779 -586 758 -616ZM854 -650L829 -637C858 -599 889 -547 909 -506L937 -520C912 -566 876 -621 854 -650ZM191 -650L199 -619C284 -620 401 -622 504 -633V-418H193C165 -418 129 -420 113 -422V-386C134 -388 163 -389 195 -389H504C499 -181 414 -71 257 3L286 26C456 -67 531 -183 535 -389H826C848 -389 875 -388 891 -386V-421C872 -419 847 -418 825 -418H535V-637C614 -648 707 -668 756 -680C769 -684 781 -687 790 -690L768 -718C721 -699 591 -674 513 -664C409 -652 263 -645 191 -650Z"/>
</svg>