<svg xmlns="http://www.w3.org/2000/svg" viewBox="0 -1000 1000 1000">
	<path fill="#000000" d="M802 -750C802 -791 835 -825 876 -825C917 -825 951 -791 951 -750C951 -709 917 -676 876 -676C835 -676 802 -709 802 -750ZM772 -750C772 -692 818 -646 876 -646C934 -646 981 -692 981 -750C981 -808 934 -855 876 -855C818 -855 772 -808 772 -750ZM418 -704L390 -694C411 -651 468 -488 482 -437L512 -447C498 -495 438 -659 418 -704ZM842 -614L806 -625C786 -495 731 -369 649 -263C550 -136 408 -34 259 11L284 37C425 -9 574 -114 675 -247C758 -355 799 -461 832 -579C834 -588 839 -606 842 -614ZM139 -646L109 -634C128 -600 200 -427 217 -367L248 -378C224 -442 161 -598 139 -646Z"/>
</svg>