<svg xmlns="http://www.w3.org/2000/svg" viewBox="0 -1000 1000 1000">
	<path fill="#000000" d="M802 -732C802 -773 835 -807 876 -807C917 -807 951 -773 951 -732C951 -691 917 -658 876 -658C835 -658 802 -691 802 -732ZM772 -732C772 -674 818 -628 876 -628C934 -628 981 -674 981 -732C981 -790 934 -837 876 -837C818 -837 772 -790 772 -732ZM296 -109C296 -31 332 12 477 12C619 12 699 6 795 -8L797 -44C697 -25 616 -18 489 -18C360 -18 326 -41 326 -116V-447C534 -489 776 -538 776 -538C744 -471 663 -343 579 -265L608 -247C697 -341 763 -455 811 -537C816 -545 822 -556 828 -563L806 -580C800 -576 786 -571 771 -568C735 -560 518 -515 326 -478V-672C326 -696 327 -713 331 -741H291C296 -713 296 -698 296 -672V-472C183 -450 82 -431 39 -426L46 -390C85 -398 183 -418 296 -441Z"/>
</svg>