<svg xmlns="http://www.w3.org/2000/svg" viewBox="0 -1000 1000 1000">
	<path fill="#000000" d="M755 -767L729 -755C755 -719 791 -660 809 -621L836 -634C815 -677 779 -733 755 -767ZM853 -801L828 -789C856 -753 888 -699 910 -656L937 -669C918 -707 879 -766 853 -801ZM465 -734L425 -746C422 -730 413 -704 408 -694C370 -604 265 -446 100 -350L129 -331C245 -406 323 -495 376 -574H755C730 -470 668 -335 585 -233C493 -122 359 -33 200 13L228 39C409 -24 525 -112 609 -215C694 -318 758 -451 784 -560C786 -567 792 -585 798 -594L767 -610C758 -605 747 -604 725 -604H395C412 -631 426 -657 437 -680C445 -696 456 -717 465 -734Z"/>
</svg>