<svg xmlns="http://www.w3.org/2000/svg" viewBox="0 -1000 1000 1000">
	<path fill="#000000" d="M793 -698C793 -740 826 -774 868 -774C909 -774 943 -740 943 -698C943 -657 909 -623 868 -623C826 -623 793 -657 793 -698ZM763 -698C763 -640 809 -593 868 -593C926 -593 974 -640 974 -698C974 -757 926 -804 868 -804C809 -804 763 -757 763 -698ZM481 -707C486 -688 492 -667 499 -644C402 -635 274 -638 152 -653L155 -621C279 -610 409 -608 507 -617C517 -585 528 -551 540 -519C548 -497 557 -474 567 -451C453 -437 284 -435 131 -452L133 -420C290 -408 458 -410 578 -425C606 -361 640 -296 678 -241C644 -246 569 -255 504 -262L501 -236C566 -229 644 -222 700 -205L723 -235C712 -245 701 -257 693 -269C657 -321 629 -375 605 -429C686 -439 759 -455 807 -469L802 -500C756 -485 674 -466 594 -454C583 -479 574 -504 565 -529C556 -554 545 -585 535 -619C604 -628 686 -645 745 -663L739 -694C678 -672 599 -656 527 -646C513 -693 501 -742 497 -779L461 -772C468 -754 475 -729 481 -707ZM230 -254L198 -263C177 -222 163 -187 163 -138C163 -23 259 34 451 34C540 34 605 29 675 17V-15C602 0 541 6 449 6C268 6 191 -47 191 -138C191 -184 206 -218 230 -254Z"/>
</svg>