<svg xmlns="http://www.w3.org/2000/svg" viewBox="0 -1000 1000 1000">
	<path fill="#000000" d="M790 -780L763 -767C791 -729 826 -668 845 -626L873 -640C849 -688 812 -749 790 -780ZM888 -814L862 -801C891 -763 926 -703 946 -662L974 -676C949 -723 911 -785 888 -814ZM195 -676L152 -678C157 -663 157 -621 157 -603C157 -549 159 -425 168 -346C195 -101 280 -11 357 -11C411 -11 471 -68 524 -228L496 -250C464 -131 411 -45 358 -45C280 -45 216 -165 198 -350C190 -440 188 -547 190 -606C191 -629 193 -665 195 -676ZM724 -644L695 -632C775 -524 842 -358 860 -164L891 -176C872 -358 806 -529 724 -644Z"/>
</svg>