<svg xmlns="http://www.w3.org/2000/svg" viewBox="0 -1000 1000 1000">
	<path fill="#000000" d="M782 -646C782 -682 809 -708 842 -708C876 -708 904 -682 904 -646C904 -613 876 -586 842 -586C809 -586 782 -613 782 -646ZM756 -646C756 -599 795 -559 842 -559C890 -559 928 -599 928 -646C928 -694 890 -732 842 -732C795 -732 756 -694 756 -646ZM795 -554L772 -571C764 -568 753 -567 745 -567H336C308 -567 286 -568 266 -571V-535C286 -536 306 -537 335 -537H758C746 -451 705 -335 643 -255C574 -163 475 -102 345 -72L371 -41C507 -83 594 -145 668 -238C730 -315 771 -430 787 -521C790 -535 791 -546 795 -554Z"/>
</svg>