<svg xmlns="http://www.w3.org/2000/svg" viewBox="0 -1000 1000 1000">
	<path fill="#000000" d="M784 -723C784 -763 816 -796 856 -796C895 -796 928 -763 928 -723C928 -683 895 -651 856 -651C816 -651 784 -683 784 -723ZM755 -723C755 -667 799 -622 856 -622C912 -622 958 -667 958 -723C958 -780 912 -825 856 -825C799 -825 755 -780 755 -723ZM362 -736L323 -742C321 -722 319 -705 314 -687C304 -649 288 -601 261 -548C230 -491 154 -379 84 -331L115 -312C170 -355 242 -450 281 -524H572C561 -233 432 -100 345 -35C325 -19 299 -5 279 2L314 27C471 -73 590 -224 603 -524H795C817 -524 851 -523 875 -522V-558C851 -554 818 -554 795 -554H296C319 -603 332 -643 344 -678C350 -698 356 -716 362 -736Z"/>
</svg>