<svg xmlns="http://www.w3.org/2000/svg" viewBox="0 -1000 1000 1000">
	<path fill="#000000" d="M801 -736C801 -777 834 -811 875 -811C916 -811 950 -777 950 -736C950 -695 916 -662 875 -662C834 -662 801 -695 801 -736ZM771 -736C771 -678 817 -632 875 -632C933 -632 980 -678 980 -736C980 -794 933 -841 875 -841C817 -841 771 -794 771 -736ZM172 -633V-595C191 -596 236 -598 268 -598H777V-67H256C218 -67 176 -70 159 -72V-34C180 -35 214 -36 257 -36H777C776 -5 775 23 775 23H810C810 23 807 -15 807 -52V-567C807 -584 808 -608 809 -629C786 -628 768 -628 748 -628H267C237 -628 201 -630 172 -633Z"/>
</svg>