<svg xmlns="http://www.w3.org/2000/svg" viewBox="0 -1000 1000 1000">
	<path fill="#000000" d="M668 -650L642 -637C670 -599 713 -525 733 -484L760 -497C737 -545 689 -620 668 -650ZM787 -695L762 -683C791 -645 835 -571 855 -530L882 -544C858 -591 810 -666 787 -695ZM83 -241L112 -213C125 -228 145 -253 162 -272C211 -327 304 -444 358 -508C397 -553 413 -558 457 -516C504 -472 598 -374 653 -314C721 -239 811 -141 883 -55L910 -82C835 -163 741 -266 675 -335C619 -394 527 -491 475 -540C417 -596 383 -585 338 -531C282 -466 189 -346 141 -297C119 -275 105 -260 83 -241Z"/>
</svg>