<svg xmlns="http://www.w3.org/2000/svg" viewBox="0 -1000 1000 1000">
	<path fill="#000000" d="M434 -775L393 -779C390 -725 374 -656 357 -604C310 -599 268 -598 229 -598C181 -598 149 -600 119 -603L121 -569C152 -568 194 -567 228 -567C267 -567 307 -569 346 -572C302 -447 213 -278 129 -185L163 -167C240 -269 331 -437 381 -576C444 -584 506 -597 566 -613L565 -648C503 -627 445 -615 391 -608C407 -663 423 -736 434 -775ZM376 -93C376 -149 436 -190 523 -190C566 -190 606 -183 644 -171C645 -145 645 -121 645 -101C645 -50 614 -3 518 -3C419 -3 376 -38 376 -93ZM667 -475H634C635 -395 640 -289 643 -201C605 -212 564 -218 521 -218C437 -218 346 -177 346 -92C346 -4 426 28 520 28C625 28 675 -28 675 -94C675 -113 675 -136 674 -161C747 -133 808 -87 857 -45L877 -74C825 -116 756 -163 673 -192C670 -263 666 -344 665 -390C664 -417 665 -436 667 -475ZM888 -475L907 -502C865 -536 763 -598 691 -629L676 -605C738 -576 839 -519 888 -475Z"/>
</svg>