<svg xmlns="http://www.w3.org/2000/svg" viewBox="0 -1000 1000 1000">
	<path fill="#000000" d="M543 -379C543 -316 552 -252 564 -195C515 -155 471 -139 434 -139C401 -139 383 -154 383 -195C383 -271 454 -360 543 -406ZM573 -377C573 -391 573 -405 574 -419C614 -436 666 -451 719 -451C727 -451 736 -451 744 -450C706 -347 655 -276 591 -218C580 -270 573 -325 573 -377ZM568 -700C568 -694 567 -684 566 -673C564 -653 561 -627 558 -596C537 -595 516 -595 495 -595C464 -595 401 -599 374 -604L375 -570C403 -567 468 -565 495 -565C514 -565 534 -565 555 -566C551 -527 547 -484 545 -439C441 -392 350 -289 350 -193C350 -139 383 -109 433 -109C473 -109 523 -127 572 -162C576 -142 582 -124 587 -108L617 -117C611 -137 604 -160 599 -184C670 -246 731 -331 776 -445C864 -426 912 -361 912 -297C912 -172 799 -104 670 -93L688 -64C877 -92 943 -193 943 -295C943 -368 893 -448 786 -472C789 -482 793 -492 796 -502C799 -512 800 -516 803 -524L768 -533C767 -527 764 -515 762 -508C759 -497 756 -487 753 -477C741 -478 729 -479 716 -479C678 -479 624 -470 575 -452C577 -493 580 -532 584 -568C677 -573 777 -584 865 -598L864 -630C775 -613 682 -602 588 -597C591 -627 595 -652 598 -671C600 -680 603 -693 605 -699Z"/>
</svg>