<svg xmlns="http://www.w3.org/2000/svg" viewBox="0 -1000 1000 1000">
	<path fill="#000000" d="M152 -619V-582C176 -584 213 -585 225 -585H481V-73H172C147 -73 121 -74 94 -77V-40C122 -42 147 -43 172 -43H834C850 -43 881 -43 906 -40V-77C881 -75 859 -73 834 -73H512V-585H779C807 -585 836 -584 857 -582V-619C837 -617 810 -615 779 -615H225C211 -615 178 -616 152 -619ZM788 -795L761 -782C790 -743 822 -690 842 -647L870 -662C846 -711 811 -764 788 -795ZM894 -822L868 -809C898 -770 930 -718 951 -676L979 -690C954 -738 918 -792 894 -822Z"/>
</svg>