<svg xmlns="http://www.w3.org/2000/svg" viewBox="0 -1000 1000 1000">
	<path fill="#000000" d="M123 -202H152L156 -679V-748H119V-679ZM138 2C157 2 178 -13 178 -41C178 -70 157 -86 138 -86C117 -86 97 -70 97 -41C97 -13 117 2 138 2ZM432 -202H465C443 -373 629 -445 629 -596C629 -687 570 -761 464 -761C390 -761 333 -724 292 -678L315 -657C352 -702 407 -728 461 -728C553 -728 592 -664 592 -593C592 -451 408 -387 432 -202ZM453 2C473 2 494 -13 494 -41C494 -70 473 -86 453 -86C432 -86 413 -70 413 -41C413 -13 432 2 453 2Z"/>
</svg>