<svg xmlns="http://www.w3.org/2000/svg" viewBox="0 -1000 1000 1000">
	<path fill="#000000" d="M422 -115C422 -173 485 -213 576 -213C620 -213 660 -206 698 -193C699 -173 699 -156 699 -143C699 -70 672 -21 567 -21C478 -21 422 -54 422 -115ZM722 -750H683C685 -735 686 -713 686 -694C685 -660 685 -611 685 -560C647 -558 608 -557 569 -557C512 -557 463 -560 409 -565V-533C465 -529 511 -526 566 -526C606 -526 645 -527 685 -529C685 -442 693 -315 697 -224C660 -235 621 -241 579 -241C456 -241 392 -178 392 -113C392 -40 454 10 580 10C704 10 728 -70 728 -130C728 -146 728 -164 727 -182C793 -154 850 -109 906 -58L925 -89C869 -138 803 -186 726 -215C722 -315 714 -437 714 -531C778 -535 840 -542 900 -552V-584C844 -573 780 -566 714 -561C714 -606 714 -662 716 -695C717 -713 719 -730 722 -750ZM233 -747L195 -751C195 -740 194 -726 191 -707C178 -621 142 -432 142 -292C142 -159 158 -56 177 16L207 13C206 7 204 -5 203 -14C202 -27 204 -43 207 -57C215 -99 254 -199 277 -255L254 -273C234 -224 204 -143 186 -88C175 -164 171 -217 171 -293C171 -414 198 -587 222 -703C225 -721 229 -735 233 -747Z"/>
</svg>