<svg xmlns="http://www.w3.org/2000/svg" viewBox="0 -1000 1000 1000">
	<path fill="#000000" d="M480 -694L474 -663C557 -644 716 -623 780 -618L785 -651C732 -654 561 -671 480 -694ZM786 -493L762 -517C755 -514 747 -512 735 -510C682 -502 493 -486 444 -484C423 -483 401 -484 385 -485L389 -445C405 -449 424 -451 447 -453C497 -457 666 -472 722 -477C650 -405 383 -141 359 -118C351 -109 342 -101 336 -97L369 -74C404 -119 514 -231 545 -259C564 -276 579 -284 601 -284C638 -284 651 -263 661 -234C667 -215 678 -165 686 -142C700 -89 736 -73 790 -73C846 -73 905 -80 936 -85L938 -122C905 -111 833 -103 792 -103C751 -103 729 -113 717 -147C710 -167 698 -213 690 -239C678 -280 657 -311 612 -311C605 -311 597 -310 592 -309C638 -356 746 -461 762 -475C767 -478 777 -486 786 -493Z"/>
</svg>