<svg xmlns="http://www.w3.org/2000/svg" viewBox="0 -1000 1000 1000">
	<path fill="#000000" d="M196 -746C196 -735 195 -717 192 -699C181 -616 151 -466 151 -308C151 -184 180 -65 198 -4L226 -9C225 -16 223 -26 222 -34C221 -46 222 -62 225 -75C235 -116 267 -217 286 -269L259 -284C241 -222 217 -155 204 -102C158 -302 189 -520 227 -694C231 -711 235 -730 238 -741ZM699 -754C702 -739 703 -726 705 -705C707 -685 710 -598 712 -534C668 -531 623 -530 578 -530C524 -530 448 -535 410 -541V-507C447 -503 525 -500 577 -500C622 -500 668 -501 713 -504V-481C713 -269 719 -135 585 -32C564 -13 533 5 508 14L540 38C760 -82 744 -260 744 -481V-506C805 -511 863 -519 914 -530V-564C861 -549 803 -541 743 -536C742 -600 739 -685 739 -706C739 -728 740 -743 741 -754Z"/>
</svg>