<svg xmlns="http://www.w3.org/2000/svg" viewBox="0 -1000 1000 1000">
	<path fill="#000000" d="M521 -703C526 -685 531 -665 538 -643C443 -635 319 -638 200 -653L203 -618C324 -607 451 -605 547 -614C556 -583 567 -550 579 -519C587 -498 595 -475 604 -453C493 -440 328 -438 180 -454L182 -420C335 -408 498 -410 616 -425C643 -363 676 -300 713 -247C680 -253 609 -261 545 -269L542 -240C606 -234 685 -225 739 -211L762 -241C751 -251 740 -262 733 -274C698 -324 670 -376 647 -429C725 -440 796 -454 842 -468L837 -502C792 -487 712 -468 635 -456C624 -481 615 -505 606 -529C598 -553 587 -584 577 -617C643 -625 724 -642 782 -659L776 -693C716 -670 639 -655 568 -646C555 -692 543 -738 539 -774L501 -767C508 -750 515 -725 521 -703ZM279 -259L243 -268C223 -228 209 -194 209 -146C209 -33 305 24 493 24C581 24 644 19 713 7V-28C641 -13 582 -6 491 -6C317 -6 240 -58 240 -146C240 -191 255 -224 279 -259Z"/>
</svg>