<svg xmlns="http://www.w3.org/2000/svg" viewBox="0 -1000 1000 1000">
	<path fill="#000000" d="M381 -198C381 -242 453 -296 514 -326C515 -260 517 -190 517 -155C517 -136 512 -115 488 -115C452 -115 381 -153 381 -198ZM791 -595C839 -569 916 -515 956 -475L976 -501C940 -534 859 -591 809 -618ZM516 -704C518 -693 519 -679 519 -665C519 -648 518 -603 517 -551C491 -549 466 -548 444 -548C428 -548 402 -549 355 -556L356 -522C403 -519 424 -518 444 -518C466 -518 490 -520 516 -522C515 -475 514 -425 514 -386V-357C453 -331 348 -265 348 -193C348 -139 441 -84 492 -84C530 -84 548 -104 548 -153C548 -195 546 -269 545 -339C605 -363 667 -378 734 -378C807 -378 880 -340 880 -266C880 -182 820 -140 740 -124C707 -117 672 -117 648 -118L658 -86C677 -86 711 -88 743 -94C854 -116 911 -177 911 -266C911 -347 835 -406 734 -406C671 -406 607 -392 545 -369V-389C545 -429 546 -479 546 -526C619 -535 694 -549 722 -556L721 -590C672 -574 608 -561 547 -554C548 -605 549 -649 550 -666C551 -676 551 -690 553 -704Z"/>
</svg>