<svg xmlns="http://www.w3.org/2000/svg" viewBox="0 -1000 1000 1000">
	<path fill="#000000" d="M747 -807L720 -794C747 -758 783 -697 802 -658L829 -672C808 -715 772 -773 747 -807ZM847 -842L821 -830C850 -792 882 -738 905 -693L932 -707C913 -746 874 -806 847 -842ZM273 -295L240 -302C218 -253 197 -207 197 -158C197 -34 308 24 479 26C579 27 657 18 723 7V-30C656 -13 573 -4 480 -5C326 -7 227 -55 227 -155C227 -206 246 -247 273 -295ZM526 -693C533 -667 544 -629 563 -579C457 -569 304 -571 166 -587L168 -553C307 -542 457 -540 573 -551C608 -458 668 -352 714 -289C673 -293 597 -299 535 -304L533 -274C592 -271 707 -262 746 -250L767 -276C755 -288 743 -300 733 -315C685 -381 633 -471 602 -555C667 -563 761 -579 830 -599L827 -633C758 -606 660 -590 592 -582C571 -642 551 -701 544 -762L507 -757C514 -738 521 -713 526 -693Z"/>
</svg>