<svg xmlns="http://www.w3.org/2000/svg" viewBox="0 -1000 1000 1000">
	<path fill="#000000" d="M345 -327C345 -402 402 -454 467 -454C522 -454 568 -423 579 -340C574 -259 537 -206 468 -206C399 -206 345 -248 345 -327ZM548 -762C549 -758 552 -736 552 -723C553 -703 554 -666 554 -625C390 -623 203 -615 99 -612L100 -577C225 -588 406 -594 555 -596C555 -540 556 -484 556 -455C533 -474 502 -485 465 -485C384 -485 314 -410 314 -327C314 -233 380 -176 468 -176C511 -176 553 -198 577 -241C558 -120 478 -34 312 8L341 34C558 -35 613 -168 613 -305C613 -351 604 -391 585 -422C584 -467 583 -534 583 -596H631C775 -596 852 -595 901 -592V-624C863 -624 769 -626 630 -626H583C583 -666 583 -701 584 -723C584 -732 586 -756 587 -762ZM809 -783C833 -752 864 -702 885 -660L915 -675C891 -715 859 -765 837 -796ZM702 -760C726 -729 758 -676 780 -637L808 -652C786 -689 752 -743 730 -773Z"/>
</svg>