<svg xmlns="http://www.w3.org/2000/svg" viewBox="0 -1000 1000 1000">
	<path fill="#000000" d="M770 -777L743 -765C770 -728 806 -668 825 -627L853 -642C831 -685 795 -743 770 -777ZM870 -812L844 -799C873 -763 905 -708 928 -664L956 -677C936 -716 897 -776 870 -812ZM245 -661V-630C320 -623 402 -619 496 -619C583 -619 676 -627 741 -631V-662C675 -655 588 -649 496 -649C403 -649 314 -652 245 -661ZM242 -286L210 -290C199 -248 189 -203 189 -158C189 -47 307 10 482 10C624 10 755 -6 810 -25L809 -59C748 -36 621 -21 482 -21C310 -21 219 -76 219 -163C219 -202 226 -244 242 -286Z"/>
</svg>