<svg xmlns="http://www.w3.org/2000/svg" viewBox="0 -1000 1000 1000">
	<path fill="#000000" d="M784 -747L757 -738C775 -703 804 -638 819 -596L849 -607C832 -649 802 -713 784 -747ZM879 -775L851 -766C871 -732 897 -670 914 -625L944 -637C927 -679 898 -742 879 -775ZM692 -738H655C658 -722 659 -698 659 -680C659 -636 659 -567 658 -513C539 -503 407 -490 301 -480C301 -544 302 -606 302 -648C302 -667 303 -692 304 -705H268C272 -680 272 -667 272 -648C272 -635 272 -562 271 -477C208 -471 157 -465 125 -463C104 -461 77 -459 43 -459L47 -420C75 -424 98 -427 128 -431C162 -435 212 -441 271 -447C271 -343 271 -230 272 -188C277 -45 290 7 490 7C594 7 714 -3 780 -10L781 -45C726 -36 607 -25 491 -25C299 -25 305 -75 301 -190C300 -223 300 -337 301 -450C411 -461 545 -474 658 -482C656 -411 651 -317 644 -281C640 -256 632 -253 602 -253C577 -253 535 -258 497 -266L496 -235C515 -231 571 -222 608 -222C647 -222 666 -236 673 -271C684 -322 686 -420 688 -484C744 -487 793 -490 830 -490H889V-528C872 -526 854 -525 830 -524C788 -522 740 -519 689 -515C690 -565 690 -633 690 -680C690 -696 691 -720 692 -738Z"/>
</svg>