<svg xmlns="http://www.w3.org/2000/svg" viewBox="0 -1000 1000 1000">
	<path fill="#000000" d="M525 -238L493 -241C484 -197 480 -170 480 -141C480 -46 562 -6 705 -6C770 -6 834 -12 885 -20L886 -57C835 -44 769 -37 706 -37C533 -37 510 -94 510 -143C510 -172 515 -202 525 -238ZM411 -768L371 -773C372 -756 370 -729 367 -710C364 -688 355 -645 345 -596C301 -592 259 -590 225 -590C193 -590 155 -591 113 -597L114 -563C151 -560 184 -559 223 -559C257 -559 296 -561 338 -565C328 -521 318 -475 308 -438C272 -299 207 -106 147 -2L186 11C235 -87 302 -292 337 -433C350 -478 361 -524 370 -568C441 -575 517 -588 586 -603V-637C522 -620 447 -607 376 -599C384 -638 391 -674 397 -706C400 -722 406 -753 411 -768ZM536 -469V-435C595 -442 655 -446 710 -446C766 -446 821 -441 872 -434L874 -468C825 -474 765 -476 706 -476C644 -476 584 -473 536 -469Z"/>
</svg>