<svg xmlns="http://www.w3.org/2000/svg" viewBox="0 -1000 1000 1000">
	<path fill="#000000" d="M751 -721L725 -708C751 -672 789 -611 807 -572L835 -586C813 -629 777 -687 751 -721ZM851 -756L826 -743C854 -706 888 -652 910 -607L938 -621C918 -660 879 -720 851 -756ZM511 -222L479 -225C470 -181 466 -154 466 -125C466 -30 548 10 691 10C756 10 820 4 871 -4L872 -41C821 -29 755 -22 692 -22C519 -22 496 -78 496 -127C496 -156 501 -186 511 -222ZM398 -752L358 -757C358 -740 355 -713 352 -694C349 -672 340 -629 330 -580C286 -576 245 -574 211 -574C179 -574 141 -575 99 -581L100 -547C137 -544 170 -543 209 -543C243 -543 282 -545 324 -549C314 -505 304 -459 294 -422C258 -283 193 -90 133 14L172 27C221 -71 288 -276 323 -417C336 -462 347 -508 356 -552C427 -559 503 -572 572 -587V-621C508 -604 433 -591 363 -583C371 -622 378 -658 384 -690C387 -706 392 -737 398 -752ZM522 -453V-420C581 -426 641 -430 696 -430C752 -430 807 -426 858 -419L860 -452C811 -458 751 -460 692 -460C630 -460 570 -457 522 -453Z"/>
</svg>