<svg xmlns="http://www.w3.org/2000/svg" viewBox="0 -1000 1000 1000">
	<path fill="#000000" d="M516 -134C516 -186 572 -222 632 -222C696 -222 749 -206 799 -176C777 -95 731 -42 639 -42C572 -42 516 -72 516 -134ZM315 -712C315 -701 312 -658 308 -603C252 -593 174 -585 143 -582C131 -581 116 -580 100 -581L104 -544C172 -554 265 -566 306 -572C304 -534 301 -491 298 -449C255 -377 130 -203 76 -135L98 -106C161 -194 244 -309 294 -388C291 -329 289 -275 289 -237V-26C289 -10 288 10 287 17H324C323 5 322 -10 321 -27C319 -91 319 -183 319 -236C319 -284 321 -344 325 -406C416 -501 568 -599 660 -599C750 -599 818 -514 818 -373C818 -313 815 -256 806 -207C751 -237 697 -250 635 -250C553 -250 487 -202 487 -132C487 -45 563 -13 641 -13C740 -13 797 -63 825 -158C860 -133 893 -100 929 -60L951 -90C910 -133 871 -166 833 -190C844 -238 848 -295 848 -360C848 -504 789 -627 665 -627C550 -627 412 -523 327 -447C329 -474 330 -501 332 -528C346 -550 361 -573 373 -592L352 -612C348 -611 344 -610 339 -609C346 -687 353 -748 357 -768L313 -770C315 -752 315 -729 315 -712Z"/>
</svg>