<svg xmlns="http://www.w3.org/2000/svg" viewBox="0 -1000 1000 1000">
	<path fill="#000000" d="M222 -728C270 -618 326 -491 370 -416L361 -410C246 -334 193 -255 193 -167C193 -41 314 14 486 14C604 14 727 3 791 -9V-47C725 -29 596 -17 483 -17C310 -17 224 -78 224 -170C224 -250 278 -321 378 -387C480 -455 609 -517 681 -554C703 -567 720 -575 734 -583L716 -613C700 -601 687 -593 666 -581C605 -547 495 -496 397 -433C353 -510 297 -629 256 -742ZM828 -769C857 -733 890 -678 912 -634L940 -648C920 -686 881 -747 854 -782ZM727 -735C754 -698 791 -638 809 -598L837 -611C815 -656 779 -712 754 -748Z"/>
</svg>