<svg xmlns="http://www.w3.org/2000/svg" viewBox="0 -1000 1000 1000">
	<path fill="#000000" d="M752 -588C752 -628 784 -663 824 -663C866 -663 900 -628 900 -588C900 -546 866 -513 824 -513C784 -513 752 -546 752 -588ZM720 -588C720 -529 767 -484 824 -484C883 -484 929 -529 929 -588C929 -645 883 -692 824 -692C767 -692 720 -645 720 -588ZM507 -525L529 -502C562 -526 598 -553 619 -571L610 -596C560 -640 448 -703 378 -736L359 -711C436 -677 538 -619 581 -579C565 -565 535 -542 507 -525ZM297 -41L300 -5C341 3 391 11 461 11C506 11 605 -5 605 -115C605 -201 535 -287 455 -374C435 -397 410 -426 392 -446L369 -426C391 -403 417 -377 436 -355C501 -279 575 -191 575 -118C575 -38 501 -20 461 -20C386 -20 343 -28 297 -41ZM884 -41L912 -57C881 -138 809 -271 736 -353L711 -338C781 -268 852 -130 884 -41ZM303 -237L285 -260C232 -201 110 -108 33 -67L52 -41C140 -90 245 -177 303 -237Z"/>
</svg>