<svg xmlns="http://www.w3.org/2000/svg" viewBox="0 -1000 1000 1000">
	<path fill="#000000" d="M536 -533L559 -510C592 -534 628 -561 648 -579L640 -604C590 -648 478 -711 408 -744L389 -719C465 -685 568 -627 611 -587C595 -573 565 -550 536 -533ZM327 -49L330 -13C371 -5 421 3 491 3C535 3 635 -13 635 -123C635 -209 564 -295 485 -382C465 -405 440 -434 422 -454L398 -434C421 -411 447 -385 466 -363C530 -287 604 -199 604 -126C604 -46 531 -28 491 -28C416 -28 373 -36 327 -49ZM913 -49L942 -65C911 -146 839 -279 766 -361L741 -346C811 -276 881 -138 913 -49ZM333 -245L315 -268C262 -209 140 -116 63 -75L82 -49C169 -98 275 -185 333 -245Z"/>
</svg>