<svg xmlns="http://www.w3.org/2000/svg" viewBox="0 -1000 1000 1000">
	<path fill="#000000" d="M718 -717L684 -707C692 -676 701 -647 709 -619C760 -250 665 -11 430 -11C323 -11 216 -57 216 -219C216 -433 384 -624 441 -666C455 -671 483 -676 495 -679L486 -711C435 -690 268 -665 187 -662C169 -661 149 -661 137 -662L140 -623C157 -624 175 -627 192 -629C234 -635 331 -647 393 -660C311 -580 187 -420 187 -214C187 -66 277 21 429 21C698 21 772 -247 743 -523C781 -427 829 -348 899 -276L924 -302C784 -425 740 -602 718 -717Z"/>
</svg>