<svg xmlns="http://www.w3.org/2000/svg" viewBox="0 -1000 1000 1000">
	<path fill="#000000" d="M239 -705L241 -668C262 -670 284 -672 306 -673C351 -675 502 -683 541 -685C504 -609 460 -508 418 -416C231 -416 102 -311 102 -172C102 -109 146 -61 206 -61C241 -61 272 -72 303 -113C343 -168 397 -302 436 -388C555 -384 669 -343 763 -291C730 -165 658 -48 499 17L525 41C677 -32 753 -130 790 -276C837 -248 879 -217 913 -189L930 -223C894 -250 849 -280 798 -309C810 -367 816 -432 820 -506L786 -509C787 -483 786 -456 785 -435C782 -398 778 -360 770 -323C678 -370 567 -410 448 -415C495 -514 546 -632 575 -677C583 -689 588 -696 594 -702L572 -720C563 -717 554 -716 541 -715C504 -712 351 -703 304 -703C285 -703 262 -703 239 -705ZM131 -174C131 -281 231 -384 405 -388C366 -300 318 -180 273 -126C250 -99 232 -92 206 -92C168 -92 131 -119 131 -174Z"/>
</svg>