<svg xmlns="http://www.w3.org/2000/svg" viewBox="0 -1000 1000 1000">
	<path fill="#000000" d="M235 -104C235 -160 297 -206 415 -206C452 -206 488 -202 522 -194C523 -160 524 -128 524 -104C524 -26 464 -7 403 -7C277 -7 235 -50 235 -104ZM513 -772C514 -764 515 -737 515 -721V-632C497 -631 480 -631 463 -631C393 -631 261 -641 204 -652V-617C263 -610 391 -600 464 -600C481 -600 498 -600 515 -601V-476C515 -463 515 -448 516 -430C495 -429 476 -429 457 -429C380 -429 276 -436 200 -447V-413C276 -405 381 -399 457 -399C476 -399 496 -399 516 -400C518 -347 520 -283 522 -225C488 -231 454 -235 418 -235C286 -235 205 -183 205 -103C205 -18 278 23 403 23C530 23 557 -49 557 -104C557 -121 556 -150 554 -186C672 -153 768 -83 829 -29L850 -61C796 -104 688 -183 553 -218C550 -271 547 -335 546 -401C634 -404 732 -412 829 -426V-459C731 -443 632 -434 545 -431V-602C636 -606 732 -617 825 -626V-660C739 -645 639 -636 545 -633V-710C546 -743 547 -757 549 -772Z"/>
</svg>