<svg xmlns="http://www.w3.org/2000/svg" viewBox="0 -1000 1000 1000">
	<path fill="#000000" d="M379 -766C381 -752 381 -737 379 -714C376 -680 371 -637 365 -589C294 -592 205 -604 139 -625L136 -593C202 -576 291 -564 361 -559C353 -489 343 -411 335 -342C262 -345 177 -357 112 -381L110 -347C179 -325 260 -314 332 -310C326 -258 323 -214 323 -183C323 -27 430 24 541 24C714 24 843 -47 843 -192C843 -276 806 -344 737 -410L700 -403C779 -342 812 -259 812 -194C812 -72 700 -7 539 -7C411 -7 354 -77 354 -186C354 -216 357 -259 362 -309C373 -308 384 -308 395 -308C465 -308 529 -310 605 -318V-352C532 -341 468 -340 394 -340H365C373 -409 383 -487 392 -558H407C484 -558 545 -561 612 -567V-599C547 -591 481 -588 406 -588H396C402 -636 407 -679 411 -713C413 -731 416 -747 419 -763Z"/>
</svg>