<svg xmlns="http://www.w3.org/2000/svg" viewBox="0 -1000 1000 1000">
	<path fill="#000000" d="M695 -558L718 -580C688 -611 627 -660 602 -678L580 -660C615 -634 666 -589 695 -558ZM424 -617L388 -601C397 -591 405 -579 417 -561C431 -538 452 -500 472 -458C418 -433 371 -411 345 -401C331 -396 326 -394 307 -390L327 -355C364 -372 421 -402 485 -431C499 -402 513 -373 524 -346C571 -238 605 -123 628 -39L664 -50C637 -133 601 -250 553 -357C541 -384 527 -414 512 -444C607 -487 711 -526 785 -526C881 -526 910 -470 910 -421C910 -388 891 -315 784 -315C735 -315 689 -328 663 -341L661 -308C688 -297 735 -285 782 -285C903 -285 941 -359 941 -420C941 -499 888 -555 785 -555C708 -555 595 -511 500 -470C478 -515 457 -556 444 -578C436 -592 429 -606 424 -617Z"/>
</svg>