<svg xmlns="http://www.w3.org/2000/svg" viewBox="0 -1000 1000 1000">
	<path fill="#000000" d="M198 -108C198 -174 266 -217 392 -217C429 -217 466 -213 502 -205C503 -169 504 -137 504 -115C504 -45 458 -7 378 -7C257 -7 198 -47 198 -108ZM528 -762H486C489 -749 491 -704 491 -682C491 -640 492 -537 492 -483C492 -416 497 -320 500 -238C465 -244 430 -248 393 -248C233 -248 167 -183 167 -108C167 -17 252 24 382 24C481 24 534 -33 534 -105C534 -130 533 -162 532 -198C647 -167 752 -102 822 -31L841 -65C767 -131 657 -200 530 -231C527 -317 522 -415 522 -482V-524C605 -525 737 -533 829 -543L828 -575C734 -562 603 -556 522 -555V-682C522 -702 525 -748 528 -762Z"/>
</svg>