<svg xmlns="http://www.w3.org/2000/svg" viewBox="0 -1000 1000 1000">
	<path fill="#000000" d="M723 -541C842 -541 910 -471 910 -375C910 -278 850 -188 715 -188C706 -188 698 -188 689 -189C711 -251 720 -324 720 -409C720 -453 717 -498 713 -541ZM656 -677C660 -669 664 -653 667 -639C670 -625 675 -601 680 -566C560 -550 438 -463 395 -322C390 -393 406 -528 419 -592C421 -602 423 -610 425 -616L388 -620C388 -612 388 -604 387 -593C383 -553 364 -442 364 -353C364 -281 378 -206 390 -163L417 -169C412 -188 408 -219 406 -240C406 -262 408 -285 413 -299C451 -415 551 -520 683 -538C686 -503 689 -459 689 -408C689 -323 681 -252 659 -195C600 -210 558 -252 531 -313L509 -292C540 -228 588 -184 647 -166C623 -117 586 -79 533 -53L563 -33C616 -65 652 -107 677 -159C688 -158 699 -157 710 -157C878 -157 941 -268 941 -378C941 -487 857 -569 721 -569H710C704 -614 698 -654 692 -679Z"/>
</svg>