<svg xmlns="http://www.w3.org/2000/svg" viewBox="0 -1000 1000 1000">
	<path fill="#000000" d="M252 -699L253 -661C271 -663 291 -665 309 -666C360 -669 587 -676 654 -680C564 -591 291 -359 136 -235L164 -209C304 -335 377 -411 562 -411C703 -411 791 -340 791 -229C791 -69 598 17 325 -15L334 20C622 43 822 -47 822 -227C822 -357 716 -438 564 -438C510 -438 453 -429 378 -401C456 -468 596 -584 684 -664C691 -670 708 -682 716 -686L687 -716C676 -712 658 -710 648 -709C589 -705 359 -697 308 -697C288 -697 270 -697 252 -699Z"/>
</svg>