<svg xmlns="http://www.w3.org/2000/svg" viewBox="0 -1000 1000 1000">
	<path fill="#000000" d="M315 -712C315 -701 312 -658 309 -602C253 -592 176 -584 143 -582C130 -581 115 -580 99 -581L103 -545C171 -555 266 -567 307 -573C304 -535 301 -491 299 -449C256 -378 129 -203 74 -135L97 -106C161 -196 245 -313 295 -392C292 -329 289 -275 289 -247C289 -153 288 -120 288 -26C288 -10 287 3 286 17H324C322 2 321 -10 320 -27C317 -110 318 -148 318 -246C318 -289 320 -342 323 -396C425 -508 553 -596 640 -596C697 -596 730 -572 730 -506C730 -405 692 -227 692 -115C692 -49 731 -15 788 -15C841 -15 904 -43 963 -105L954 -139C898 -78 842 -47 785 -47C740 -47 722 -82 722 -121C722 -218 762 -411 762 -506C762 -583 719 -625 642 -625C540 -625 397 -512 325 -439C327 -471 329 -502 331 -533C344 -554 358 -577 370 -595L351 -611C347 -610 342 -609 337 -607C344 -686 352 -748 356 -768L312 -770C315 -752 315 -729 315 -712Z"/>
</svg>