<svg xmlns="http://www.w3.org/2000/svg" viewBox="0 -1000 1000 1000">
	<path fill="#000000" d="M546 -689L507 -692C505 -633 496 -571 484 -520C432 -515 379 -509 352 -508C332 -507 313 -507 294 -508L298 -471C313 -473 337 -476 352 -477C378 -479 427 -485 478 -490C477 -489 477 -488 477 -487C455 -391 393 -201 309 -89L343 -76C434 -218 483 -381 509 -486C510 -488 510 -490 511 -493C552 -496 590 -499 613 -499C664 -499 704 -486 704 -409C704 -316 687 -198 662 -148C644 -112 619 -107 593 -107C565 -107 530 -111 492 -124L497 -86C531 -81 568 -76 601 -76C636 -76 666 -88 690 -136C718 -191 735 -312 735 -413C735 -515 673 -529 614 -529C595 -529 558 -526 517 -522C528 -576 537 -636 540 -657C542 -669 544 -679 546 -689ZM807 -596L781 -582C833 -517 903 -388 925 -314L957 -329C929 -401 859 -535 807 -596Z"/>
</svg>