<svg xmlns="http://www.w3.org/2000/svg" viewBox="0 -1000 1000 1000">
	<path fill="#000000" d="M315 -712C315 -701 312 -658 309 -602C253 -592 176 -584 143 -582C130 -581 115 -580 100 -581L104 -545C171 -555 266 -567 307 -573C304 -534 301 -490 299 -448C254 -376 129 -203 75 -135L98 -106C161 -195 245 -312 295 -391C292 -329 289 -275 289 -247C289 -153 288 -120 288 -26C288 -10 287 10 286 17H324C322 2 321 -10 320 -27C317 -110 318 -148 318 -246C318 -288 320 -339 323 -393C416 -485 534 -550 657 -550C817 -550 874 -422 874 -348C876 -163 704 -80 544 -58L558 -27C743 -61 907 -151 905 -347C904 -494 781 -579 660 -579C562 -579 441 -537 325 -432C327 -466 329 -500 332 -533C345 -554 359 -577 370 -595L351 -611C347 -610 343 -609 338 -608C346 -686 353 -748 358 -768L313 -770C315 -752 315 -729 315 -712Z"/>
</svg>