<svg xmlns="http://www.w3.org/2000/svg" viewBox="0 -1000 1000 1000">
	<path fill="#000000" d="M743 -669L717 -656C743 -619 780 -559 799 -519L826 -534C805 -577 769 -635 743 -669ZM843 -703L818 -691C846 -654 879 -599 902 -555L929 -569C910 -607 871 -668 843 -703ZM721 -343C721 -146 542 -42 309 -9L331 22C566 -17 752 -128 752 -343C752 -470 653 -538 530 -538C419 -538 306 -503 240 -488C213 -482 188 -477 167 -475L180 -432C199 -440 218 -446 250 -456C316 -475 411 -507 530 -507C639 -507 721 -444 721 -343ZM284 -757L279 -725C387 -705 570 -685 673 -678L678 -710C589 -712 386 -733 284 -757Z"/>
</svg>