<svg xmlns="http://www.w3.org/2000/svg" viewBox="0 -1000 1000 1000">
	<path fill="#000000" d="M802 -682H760C762 -678 765 -650 766 -637C768 -613 768 -553 769 -511C738 -509 704 -508 667 -508C613 -508 558 -514 533 -519V-484C571 -481 615 -478 666 -478C706 -478 740 -479 770 -481C774 -310 777 -195 671 -113C655 -100 631 -85 608 -79L639 -53C819 -148 804 -318 801 -483C849 -487 890 -493 936 -500V-536C892 -525 849 -518 800 -513C800 -543 798 -619 799 -637C800 -652 800 -667 802 -682ZM405 -672L368 -677C368 -670 367 -655 365 -641C353 -575 329 -457 329 -334C329 -234 352 -134 368 -86L394 -91C393 -96 391 -109 391 -117C390 -127 391 -139 394 -148C400 -181 426 -261 440 -303L415 -314C401 -265 383 -221 373 -180C345 -338 366 -499 397 -636C400 -650 402 -663 405 -672Z"/>
</svg>