<svg xmlns="http://www.w3.org/2000/svg" viewBox="0 -1000 1000 1000">
	<path fill="#000000" d="M727 -679H687C690 -663 692 -643 692 -628C693 -615 693 -579 694 -532H391C370 -532 356 -532 334 -535V-499C353 -501 367 -502 391 -502H683C615 -395 466 -257 317 -182L341 -158C490 -237 631 -371 695 -468C697 -352 699 -204 699 -131C699 -115 689 -103 671 -103C634 -103 593 -107 552 -114L554 -81C588 -78 636 -75 677 -75C706 -75 730 -90 730 -123C729 -208 726 -381 725 -502H873C890 -502 915 -500 925 -499V-535C915 -533 889 -532 874 -532H725C724 -580 724 -615 724 -628C724 -647 724 -662 727 -679Z"/>
</svg>