<svg xmlns="http://www.w3.org/2000/svg" viewBox="0 -1000 1000 1000">
	<path fill="#000000" d="M624 -691H588C590 -676 591 -656 591 -646V-563H422C397 -563 369 -564 350 -565C352 -549 353 -522 353 -506V-374C353 -363 352 -350 350 -338H385C383 -351 383 -363 383 -374V-534H849C844 -468 818 -368 771 -290C706 -182 610 -138 541 -115C526 -108 502 -102 478 -98L503 -71C668 -119 749 -192 802 -281C851 -362 872 -471 880 -521C882 -536 884 -544 888 -554L868 -567C861 -565 852 -563 826 -563H621V-646C621 -656 621 -676 624 -691Z"/>
</svg>