<svg xmlns="http://www.w3.org/2000/svg" viewBox="0 -1000 1000 1000">
	<path fill="#000000" d="M511 -793H473C475 -775 476 -750 476 -737V-610H254C223 -610 194 -612 171 -614C174 -595 174 -568 174 -548V-375C174 -364 173 -342 171 -333H208C206 -343 205 -364 205 -376V-580H804C798 -499 762 -359 707 -266C643 -160 517 -74 401 -41C380 -35 358 -28 338 -25L363 4C546 -47 667 -142 735 -254C795 -351 826 -499 835 -562C838 -579 842 -595 845 -601L825 -616C817 -613 804 -610 772 -610H507V-737C507 -750 508 -775 511 -793Z"/>
</svg>