<svg xmlns="http://www.w3.org/2000/svg" viewBox="0 -1000 1000 1000">
	<path fill="#000000" d="M686 -474V-509H828C863 -509 899 -506 899 -506V-543C899 -543 863 -539 828 -539H686V-680C686 -716 690 -749 691 -749H652C652 -749 656 -716 656 -680V-539H336V-692C336 -720 339 -745 339 -745H303C305 -730 306 -705 306 -691V-539H178C144 -539 89 -543 89 -544V-506C89 -506 143 -509 178 -509H306V-327C306 -297 302 -253 302 -253H339C339 -253 336 -299 336 -327V-509H656V-466C656 -160 563 -78 398 -8L424 18C633 -78 686 -197 686 -474Z"/>
</svg>