<svg xmlns="http://www.w3.org/2000/svg" viewBox="0 -1000 1000 1000">
	<path fill="#000000" d="M731 -756L704 -743C731 -707 767 -648 785 -609L812 -623C791 -666 755 -722 731 -756ZM829 -790L804 -777C832 -741 864 -688 886 -644L913 -658C894 -696 855 -755 829 -790ZM466 -749H425C429 -726 431 -699 431 -677C431 -637 429 -600 426 -565H225C187 -565 157 -567 130 -569V-532C158 -535 183 -535 226 -535H423C395 -276 298 -145 199 -65C180 -49 150 -26 128 -16L157 9C309 -93 418 -231 452 -535H775C775 -432 763 -149 719 -62C707 -39 685 -34 660 -34C617 -34 564 -37 508 -43L512 -9C565 -6 620 -4 662 -4C703 -4 727 -14 746 -48C791 -135 803 -429 806 -511C807 -525 808 -537 811 -554L785 -568C775 -567 762 -565 735 -565H455C458 -600 461 -638 462 -678C463 -701 464 -727 466 -749Z"/>
</svg>