<svg xmlns="http://www.w3.org/2000/svg" viewBox="0 -1000 1000 1000">
	<path fill="#000000" d="M738 -786L712 -773C738 -737 774 -678 793 -639L820 -653C799 -695 763 -752 738 -786ZM836 -820L811 -807C839 -771 871 -718 894 -674L921 -688C902 -725 863 -785 836 -820ZM740 -643L720 -660C709 -657 696 -656 675 -656H268C237 -656 187 -661 187 -661V-622C187 -622 239 -626 268 -626H695C667 -534 586 -400 518 -323C409 -202 272 -88 116 -25L139 1C295 -68 426 -179 532 -295C636 -205 756 -75 823 8L849 -15C779 -96 660 -222 550 -315C623 -398 692 -526 726 -618C728 -624 736 -638 740 -643Z"/>
</svg>