<svg xmlns="http://www.w3.org/2000/svg" viewBox="0 -1000 1000 1000">
	<path fill="#000000" d="M745 -763L718 -750C745 -715 781 -655 799 -616L826 -630C805 -673 769 -729 745 -763ZM843 -797L817 -784C846 -748 878 -695 900 -651L927 -665C908 -703 869 -762 843 -797ZM323 -115C323 -40 358 2 499 2C637 2 714 -4 807 -17L809 -53C712 -35 634 -28 510 -28C385 -28 353 -49 353 -122V-444C555 -485 787 -531 787 -531C756 -467 677 -343 597 -267L626 -249C712 -340 776 -451 823 -531C828 -539 834 -549 840 -556L818 -574C812 -570 799 -565 783 -562C748 -554 539 -511 353 -475V-662C353 -685 354 -702 358 -729H318C323 -702 323 -687 323 -662V-469C213 -447 115 -429 73 -424L80 -388C118 -396 214 -416 323 -438Z"/>
</svg>