<svg xmlns="http://www.w3.org/2000/svg" viewBox="0 -1000 1000 1000">
	<path fill="#000000" d="M752 -781L726 -769C752 -733 788 -674 806 -635L834 -648C812 -691 776 -747 752 -781ZM850 -815L825 -803C853 -767 885 -713 907 -670L935 -683C915 -721 876 -780 850 -815ZM474 -747L436 -760C433 -744 422 -719 417 -709C375 -615 267 -457 104 -354L131 -333C251 -414 333 -511 388 -595H764C739 -497 683 -373 608 -274C533 -327 452 -381 374 -427L355 -407C431 -361 513 -304 588 -249C496 -141 350 -40 194 6L222 32C401 -33 528 -130 612 -231C653 -200 691 -169 723 -141L747 -168C713 -196 674 -226 632 -256C710 -356 767 -480 793 -581C795 -588 802 -607 806 -615L776 -632C767 -627 756 -625 734 -625H408C423 -649 435 -672 446 -693C454 -709 465 -730 474 -747Z"/>
</svg>