<svg xmlns="http://www.w3.org/2000/svg" viewBox="0 -1000 1000 1000">
	<path fill="#000000" d="M757 -667C757 -707 789 -740 829 -740C868 -740 901 -707 901 -667C901 -627 868 -596 829 -596C789 -596 757 -627 757 -667ZM728 -667C728 -611 772 -566 829 -566C885 -566 931 -611 931 -667C931 -723 885 -770 829 -770C772 -770 728 -723 728 -667ZM250 -293C217 -218 165 -118 103 -35L135 -22C193 -106 242 -195 278 -279C325 -385 358 -539 372 -594C376 -614 379 -623 384 -639L349 -645C336 -545 292 -387 250 -293ZM728 -348C770 -246 820 -105 842 -22L876 -31C851 -111 800 -254 757 -357C711 -469 653 -588 616 -654L586 -643C629 -572 687 -446 728 -348Z"/>
</svg>