<svg xmlns="http://www.w3.org/2000/svg" viewBox="0 -1000 1000 1000">
	<path fill="#000000" d="M744 -751L718 -738C744 -702 780 -643 798 -604L826 -618C804 -660 768 -717 744 -751ZM842 -785L817 -772C845 -736 877 -683 899 -639L927 -653C907 -690 868 -750 842 -785ZM250 -293C217 -218 165 -118 103 -35L135 -22C193 -106 242 -195 278 -279C325 -385 358 -539 372 -594C376 -614 379 -623 384 -639L349 -645C336 -545 292 -387 250 -293ZM728 -348C770 -246 820 -105 842 -22L876 -31C851 -111 800 -254 757 -357C711 -469 653 -588 616 -654L586 -643C629 -572 687 -446 728 -348Z"/>
</svg>