<svg xmlns="http://www.w3.org/2000/svg" viewBox="0 -1000 1000 1000">
	<path fill="#000000" d="M536 -773H494C498 -754 499 -716 499 -693V-617H290C258 -617 204 -619 179 -622V-584C207 -586 258 -587 290 -587H740C702 -535 609 -441 511 -377C419 -317 303 -258 123 -211L142 -180C303 -228 404 -273 498 -332C498 -262 497 -141 497 -75C497 -45 495 -14 492 16H532C530 -14 528 -45 528 -75C528 -144 529 -272 529 -352C531 -354 534 -355 536 -357C632 -421 719 -508 764 -564C775 -577 788 -590 798 -600L777 -621C767 -617 751 -617 735 -617H531V-693C531 -716 532 -754 536 -773ZM874 -165L895 -192C808 -250 754 -283 660 -332L639 -310C737 -261 790 -224 874 -165Z"/>
</svg>