<svg xmlns="http://www.w3.org/2000/svg" viewBox="0 -1000 1000 1000">
	<path fill="#000000" d="M749 -677C749 -716 781 -749 821 -749C861 -749 894 -716 894 -677C894 -637 861 -605 821 -605C781 -605 749 -637 749 -677ZM720 -677C720 -620 764 -576 821 -576C877 -576 923 -620 923 -677C923 -733 877 -779 821 -779C764 -779 720 -733 720 -677ZM272 -724H232C236 -709 237 -691 237 -668V-128C237 -54 270 -33 336 -21C374 -15 431 -12 483 -12C598 -12 733 -20 809 -32V-71C728 -50 587 -42 483 -42C431 -42 370 -45 338 -51C288 -61 268 -75 268 -132V-381C379 -410 561 -463 681 -513C707 -523 733 -536 753 -544L735 -578C719 -566 694 -553 670 -542C554 -490 379 -438 268 -413V-668C268 -694 270 -708 272 -724Z"/>
</svg>