<svg xmlns="http://www.w3.org/2000/svg" viewBox="0 -1000 1000 1000">
	<path fill="#000000" d="M714 -385L687 -372C743 -310 818 -184 853 -115L883 -133C844 -203 768 -323 714 -385ZM322 -375L293 -389C257 -314 169 -190 105 -133L134 -113C191 -175 281 -296 322 -375ZM741 -761L715 -748C741 -712 777 -653 796 -614L823 -628C801 -670 766 -727 741 -761ZM844 -788L819 -775C847 -739 879 -686 901 -642L929 -656C909 -694 870 -753 844 -788ZM518 -742H479C482 -730 484 -705 484 -688V-566H191C160 -566 145 -567 120 -570V-533C144 -535 162 -536 192 -536H484V-52C484 -27 473 -15 445 -15C418 -15 373 -18 329 -26L331 9C361 12 419 17 449 17C498 17 515 -2 515 -47V-536H803C823 -536 844 -536 865 -535V-570C843 -567 820 -566 802 -566H515V-688C515 -706 516 -728 518 -742Z"/>
</svg>