<svg xmlns="http://www.w3.org/2000/svg" viewBox="0 -1000 1000 1000">
	<path fill="#000000" d="M474 -680L437 -671C444 -657 448 -646 455 -622C459 -608 473 -559 490 -497C423 -484 370 -474 356 -472C330 -468 309 -465 284 -463L293 -428C316 -433 400 -449 498 -469C536 -332 585 -151 595 -114C601 -93 605 -77 608 -59L644 -69C638 -85 633 -100 626 -122C615 -156 565 -338 528 -474C679 -504 849 -538 869 -541C829 -477 758 -391 687 -331L717 -314C783 -373 878 -485 919 -566L898 -580C891 -576 880 -573 872 -571C845 -564 661 -529 520 -502C503 -565 489 -615 486 -628C479 -653 475 -670 474 -680Z"/>
</svg>