<svg xmlns="http://www.w3.org/2000/svg" viewBox="0 -1000 1000 1000">
	<path fill="#000000" d="M324 -760L284 -750C291 -737 298 -718 307 -690C311 -679 328 -616 351 -534C263 -518 193 -505 176 -501C145 -496 122 -493 92 -491L100 -452C127 -459 234 -480 359 -505C407 -330 472 -91 483 -49C489 -29 495 -5 498 12L536 2C529 -18 521 -39 516 -58C503 -103 440 -328 389 -510C584 -549 808 -592 833 -597C793 -527 686 -392 602 -325L634 -309C712 -378 834 -527 880 -620L860 -636C852 -631 840 -628 832 -626C804 -620 564 -575 381 -540C364 -603 348 -659 337 -698C331 -726 325 -745 324 -760Z"/>
</svg>