<svg xmlns="http://www.w3.org/2000/svg" viewBox="0 -1000 1000 1000">
	<path fill="#000000" d="M190 -675V-640C214 -641 240 -642 271 -642H422V-398H203C181 -398 152 -399 126 -402V-365C151 -367 181 -368 203 -368H422V-118C422 -58 471 -15 586 -15C681 -15 757 -20 845 -27L846 -60C757 -49 684 -46 586 -46C486 -46 452 -84 452 -128V-368H812C833 -368 860 -367 879 -366V-401C860 -399 832 -398 812 -398H452V-642H726C759 -642 778 -641 799 -640V-675C779 -673 757 -672 726 -672H271C240 -672 214 -673 190 -675Z"/>
</svg>