<svg xmlns="http://www.w3.org/2000/svg" viewBox="0 -1000 1000 1000">
	<path fill="#000000" d="M725 -792L699 -780C725 -744 761 -684 780 -646L807 -659C785 -702 749 -758 725 -792ZM829 -817L804 -804C832 -768 864 -715 886 -671L914 -684C894 -722 855 -782 829 -817ZM491 -783H453C455 -765 456 -740 456 -727V-600H234C203 -600 174 -602 151 -604C154 -585 154 -558 154 -538V-365C154 -354 153 -332 151 -323H188C186 -333 185 -354 185 -366V-569H784C778 -489 742 -349 686 -256C623 -150 497 -64 381 -31C360 -25 338 -18 318 -15L343 14C526 -37 647 -132 715 -244C775 -341 806 -489 815 -552C818 -569 822 -585 825 -591L805 -606C797 -603 784 -600 752 -600H487V-727C487 -740 488 -765 491 -783Z"/>
</svg>