<svg xmlns="http://www.w3.org/2000/svg" viewBox="0 -1000 1000 1000">
	<path fill="#000000" d="M768 -767L741 -758C760 -724 788 -660 802 -619L831 -630C816 -671 786 -735 768 -767ZM862 -795L833 -786C854 -752 879 -692 896 -648L926 -659C909 -701 880 -762 862 -795ZM666 -733H629C632 -712 633 -685 633 -672V-579H211C187 -579 162 -580 136 -582V-547C163 -548 187 -549 211 -549H319V-228H176C151 -228 127 -229 100 -232V-196C128 -198 151 -199 176 -199H633V-82C633 -73 633 -35 629 8H666C663 -34 663 -74 663 -84V-199H817C833 -199 863 -199 887 -196V-232C863 -230 842 -228 817 -228H663V-549H791C808 -549 838 -549 862 -547V-582C838 -580 816 -579 791 -579H663V-672C663 -682 664 -710 666 -733ZM349 -228V-549H633V-228Z"/>
</svg>