<svg xmlns="http://www.w3.org/2000/svg" viewBox="0 -1000 1000 1000">
	<path fill="#000000" d="M730 -812L702 -802C724 -770 754 -718 773 -679L804 -690C783 -728 751 -781 730 -812ZM842 -837L813 -827C837 -795 867 -746 886 -704L916 -716C895 -757 864 -806 842 -837ZM816 -635L792 -651C784 -648 770 -647 760 -647H238C200 -647 171 -647 150 -649C152 -632 153 -619 153 -600V-391C153 -380 153 -364 151 -346H186C185 -364 184 -377 184 -391V-617H776C766 -492 741 -353 680 -260C598 -132 471 -44 317 0L342 25C498 -22 630 -124 707 -245C772 -347 791 -482 808 -610C809 -616 813 -630 816 -635Z"/>
</svg>