<svg xmlns="http://www.w3.org/2000/svg" viewBox="0 -1000 1000 1000">
	<path fill="#000000" d="M586 -690H548C551 -671 552 -658 552 -638C552 -605 551 -573 549 -543H388C357 -543 334 -545 312 -547V-511C335 -513 353 -513 389 -513H546C527 -337 466 -223 368 -146C351 -132 326 -115 308 -107L338 -82C472 -173 549 -280 575 -513H825C825 -430 818 -214 784 -144C774 -125 755 -122 736 -122C707 -122 658 -124 613 -130L616 -96C654 -93 700 -91 739 -91C774 -91 795 -101 809 -128C847 -199 855 -429 857 -495C858 -507 858 -519 860 -533L840 -546C831 -545 821 -543 799 -543H578C581 -574 583 -606 584 -641C585 -661 585 -670 586 -690Z"/>
</svg>