<svg xmlns="http://www.w3.org/2000/svg" viewBox="0 -1000 1000 1000"><path d="M543-379c0 63 9 127 21 184-49 40-93 56-130 56-33 0-51-15-51-56 0-76 71-165 160-211zm30 2c0-14 0-28 1-42 40-17 92-32 145-32 8 0 17 0 25 1-38 103-89 174-153 232-11-52-18-107-18-159zm-5-323c0 6-1 16-2 27-2 20-5 46-8 77-21 1-42 1-63 1-31 0-94-4-121-9l1 34c28 3 93 5 120 5 19 0 39 0 60-1-4 39-8 82-10 127-104 47-195 150-195 246 0 54 33 84 83 84 40 0 90-18 139-53 4 20 10 38 15 54l30-9c-6-20-13-43-18-67 71-62 132-147 177-261 88 19 136 84 136 148 0 125-113 193-242 204l18 29c189-28 255-129 255-231 0-73-50-153-157-177 3-10 7-20 10-30s4-14 7-22l-35-9c-1 6-4 18-6 25-3 11-6 21-9 31-12-1-24-2-37-2-38 0-92 9-141 27 2-41 5-80 9-116 93-5 193-16 281-30l-1-32c-89 17-182 28-276 33 3-30 7-55 10-74 2-9 5-22 7-28z"/></svg>